Renner-700-BoldItalic.ufo
<glyph name="exclam" format="1">
  <advance width="343"/>
  <unicode hex="0021"/>
  <outline>
    <contour>
      <point x="201" y="700" type="line"/>
      <point x="389" y="700" type="line"/>
      <point x="274" y="231" type="line"/>
      <point x="151" y="231" type="line"/>
    </contour>
    <contour>
      <point x="89" y="62" type="curve" smooth="yes"/>
      <point x="98" y="112"/>
      <point x="143" y="148"/>
      <point x="198" y="148" type="curve" smooth="yes"/>
      <point x="253" y="148"/>
      <point x="286" y="112"/>
      <point x="277" y="62" type="curve" smooth="yes"/>
      <point x="268" y="12"/>
      <point x="223" y="-24"/>
      <point x="168" y="-24" type="curve" smooth="yes"/>
      <point x="113" y="-24"/>
      <point x="80" y="12"/>
    </contour>
  </outline>
</glyph>
<glyph name="dollar" format="1">
  <advance width="621"/>
  <unicode hex="0024"/>
  <outline>
    <contour>
      <point x="406" y="818" type="line"/>
      <point x="530" y="818" type="line"/>
      <point x="492" y="637" type="line"/>
      <point x="380" y="637" type="line"/>
    </contour>
    <contour>
      <point x="279" y="62" type="line"/>
      <point x="391" y="62" type="line"/>
      <point x="366" y="-112" type="line"/>
      <point x="242" y="-112" type="line"/>
    </contour>
    <contour>
      <point x="535" y="489" type="line"/>
      <point x="515" y="547"/>
      <point x="481" y="586"/>
      <point x="429" y="586" type="curve" smooth="yes"/>
      <point x="374" y="586"/>
      <point x="346" y="558"/>
      <point x="340" y="522" type="curve" smooth="yes"/>
      <point x="330" y="463"/>
      <point x="402" y="446"/>
      <point x="481" y="414" type="curve" smooth="yes"/>
      <point x="570" y="380"/>
      <point x="642" y="316"/>
      <point x="621" y="196" type="curve" smooth="yes"/>
      <point x="598" y="64"/>
      <point x="480" y="-10"/>
      <point x="316" y="-10" type="curve" smooth="yes"/>
      <point x="188" y="-10"/>
      <point x="90" y="72"/>
      <point x="63" y="168" type="curve"/>
      <point x="196" y="251" type="line"/>
      <point x="229" y="167"/>
      <point x="270" y="125"/>
      <point x="344" y="125" type="curve" smooth="yes"/>
      <point x="403" y="125"/>
      <point x="434" y="149"/>
      <point x="442" y="194" type="curve" smooth="yes"/>
      <point x="452" y="250"/>
      <point x="392" y="270"/>
      <point x="316" y="302" type="curve" smooth="yes"/>
      <point x="251" y="328"/>
      <point x="142" y="385"/>
      <point x="166" y="521" type="curve" smooth="yes"/>
      <point x="184" y="623"/>
      <point x="301" y="710"/>
      <point x="446" y="710" type="curve" smooth="yes"/>
      <point x="590" y="710"/>
      <point x="646" y="638"/>
      <point x="675" y="562" type="curve"/>
    </contour>
  </outline>
</glyph>
<glyph name="percent" format="1">
  <advance width="919"/>
  <unicode hex="0025"/>
  <outline>
    <contour>
      <point x="116" y="534" type="curve" smooth="yes"/>
      <point x="134" y="636"/>
      <point x="231" y="720"/>
      <point x="339" y="720" type="curve" smooth="yes"/>
      <point x="447" y="720"/>
      <point x="513" y="636"/>
      <point x="495" y="534" type="curve" smooth="yes"/>
      <point x="477" y="432"/>
      <point x="382" y="350"/>
      <point x="274" y="350" type="curve" smooth="yes"/>
      <point x="166" y="350"/>
      <point x="98" y="432"/>
    </contour>
    <contour>
      <point x="241" y="534" type="curve" smooth="yes"/>
      <point x="235" y="498"/>
      <point x="257" y="468"/>
      <point x="295" y="468" type="curve" smooth="yes"/>
      <point x="333" y="468"/>
      <point x="364" y="498"/>
      <point x="370" y="534" type="curve" smooth="yes"/>
      <point x="376" y="570"/>
      <point x="356" y="600"/>
      <point x="318" y="600" type="curve" smooth="yes"/>
      <point x="280" y="600"/>
      <point x="247" y="570"/>
    </contour>
    <contour>
      <point x="548" y="166" type="curve" smooth="yes"/>
      <point x="566" y="268"/>
      <point x="662" y="351"/>
      <point x="770" y="351" type="curve" smooth="yes"/>
      <point x="878" y="351"/>
      <point x="944" y="268"/>
      <point x="926" y="166" type="curve" smooth="yes"/>
      <point x="908" y="64"/>
      <point x="813" y="-19"/>
      <point x="705" y="-19" type="curve" smooth="yes"/>
      <point x="597" y="-19"/>
      <point x="530" y="64"/>
    </contour>
    <contour>
      <point x="673" y="166" type="curve" smooth="yes"/>
      <point x="667" y="130"/>
      <point x="688" y="100"/>
      <point x="726" y="100" type="curve" smooth="yes"/>
      <point x="764" y="100"/>
      <point x="795" y="130"/>
      <point x="801" y="166" type="curve" smooth="yes"/>
      <point x="807" y="202"/>
      <point x="787" y="232"/>
      <point x="749" y="232" type="curve" smooth="yes"/>
      <point x="711" y="232"/>
      <point x="679" y="202"/>
    </contour>
    <contour>
      <point x="773" y="700" type="line"/>
      <point x="930" y="700" type="line"/>
      <point x="269" y="0" type="line"/>
      <point x="113" y="0" type="line"/>
    </contour>
  </outline>
</glyph>
<glyph name="quotesingle" format="1">
  <advance width="306"/>
  <unicode hex="0027"/>
  <outline>
    <contour>
      <point x="228" y="700" type="line"/>
      <point x="389" y="700" type="line"/>
      <point x="227" y="381" type="line"/>
      <point x="128" y="381" type="line"/>
    </contour>
  </outline>
</glyph>
<glyph name="parenleft" format="1">
  <advance width="341"/>
  <unicode hex="0028"/>
  <outline>
    <contour>
      <point x="328" y="780" type="curve"/>
      <point x="465" y="780" type="line"/>
      <point x="369" y="630"/>
      <point x="299" y="460"/>
      <point x="269" y="290" type="curve" smooth="yes"/>
      <point x="239" y="120"/>
      <point x="248" y="-50"/>
      <point x="292" y="-200" type="curve"/>
      <point x="155" y="-200" type="line"/>
      <point x="101" y="-50"/>
      <point x="89" y="120"/>
      <point x="119" y="290" type="curve" smooth="yes"/>
      <point x="149" y="460"/>
      <point x="222" y="630"/>
    </contour>
  </outline>
</glyph>
<glyph name="parenright" format="1">
  <advance width="341"/>
  <unicode hex="0029"/>
  <outline>
    <contour>
      <point x="117" y="-200" type="curve"/>
      <point x="-21" y="-200" type="line"/>
      <point x="75" y="-50"/>
      <point x="145" y="120"/>
      <point x="175" y="290" type="curve" smooth="yes"/>
      <point x="205" y="460"/>
      <point x="196" y="630"/>
      <point x="152" y="780" type="curve"/>
      <point x="290" y="780" type="line"/>
      <point x="344" y="630"/>
      <point x="354" y="460"/>
      <point x="324" y="290" type="curve" smooth="yes"/>
      <point x="294" y="120"/>
      <point x="223" y="-50"/>
    </contour>
  </outline>
</glyph>
<glyph name="comma" format="1">
  <advance width="323"/>
  <unicode hex="002C"/>
  <outline>
    <contour>
      <point x="139" y="110" type="line"/>
      <point x="286" y="78" type="line"/>
      <point x="116" y="-172" type="line"/>
      <point x="6" y="-149" type="line"/>
    </contour>
  </outline>
</glyph>
<glyph name="four" format="1">
  <advance width="698"/>
  <unicode hex="0034"/>
  <outline>
    <contour>
      <point x="36" y="124" type="line"/>
      <point x="195" y="246" type="line"/>
      <point x="505" y="246" type="line" smooth="yes"/>
      <point x="526" y="268" type="line" smooth="yes"/>
      <point x="703" y="268" type="line"/>
      <point x="678" y="124" type="line"/>
    </contour>
    <contour>
      <point x="216" y="174" type="line"/>
      <point x="36" y="124" type="line"/>
      <point x="543" y="700" type="line"/>
      <point x="669" y="700" type="line"/>
      <point x="546" y="0" type="line"/>
      <point x="370" y="0" type="line"/>
      <point x="398" y="160" type="line" smooth="yes"/>
      <point x="419" y="172" type="line" smooth="yes"/>
      <point x="469" y="454" type="line"/>
    </contour>
  </outline>
</glyph>
<glyph name="colon" format="1">
  <advance width="322"/>
  <unicode hex="003A"/>
  <outline>
    <contour>
      <point x="79" y="68" type="curve" smooth="yes"/>
      <point x="88" y="118"/>
      <point x="134" y="160"/>
      <point x="189" y="160" type="curve" smooth="yes"/>
      <point x="244" y="160"/>
      <point x="277" y="118"/>
      <point x="268" y="68" type="curve" smooth="yes"/>
      <point x="259" y="18"/>
      <point x="212" y="-24"/>
      <point x="157" y="-24" type="curve" smooth="yes"/>
      <point x="102" y="-24"/>
      <point x="70" y="18"/>
    </contour>
    <contour>
      <point x="145" y="442" type="curve" smooth="yes"/>
      <point x="154" y="492"/>
      <point x="200" y="534"/>
      <point x="255" y="534" type="curve" smooth="yes"/>
      <point x="310" y="534"/>
      <point x="343" y="492"/>
      <point x="334" y="442" type="curve" smooth="yes"/>
      <point x="325" y="392"/>
      <point x="278" y="350"/>
      <point x="223" y="350" type="curve" smooth="yes"/>
      <point x="168" y="350"/>
      <point x="136" y="392"/>
    </contour>
  </outline>
</glyph>
<glyph name="B" format="1">
  <advance width="664"/>
  <unicode hex="0042"/>
  <outline>
    <contour>
      <point x="262" y="396" type="line"/>
      <point x="418" y="396" type="line" smooth="yes"/>
      <point x="553" y="396"/>
      <point x="680" y="339"/>
      <point x="655" y="197" type="curve" smooth="yes"/>
      <point x="630" y="58"/>
      <point x="514" y="0"/>
      <point x="348" y="0" type="curve" smooth="yes"/>
      <point x="192" y="0" type="line"/>
      <point x="215" y="132" type="line"/>
      <point x="353" y="132" type="line" smooth="yes"/>
      <point x="418" y="132"/>
      <point x="472" y="153"/>
      <point x="484" y="220" type="curve" smooth="yes"/>
      <point x="495" y="281"/>
      <point x="449" y="304"/>
      <point x="384" y="304" type="curve" smooth="yes"/>
      <point x="246" y="304" type="line"/>
    </contour>
    <contour>
      <point x="253" y="348" type="line"/>
      <point x="266" y="422" type="line"/>
      <point x="387" y="422" type="line" smooth="yes"/>
      <point x="445" y="422"/>
      <point x="485" y="450"/>
      <point x="493" y="497" type="curve" smooth="yes"/>
      <point x="501" y="544"/>
      <point x="471" y="568"/>
      <point x="413" y="568" type="curve" smooth="yes"/>
      <point x="292" y="568" type="line"/>
      <point x="315" y="700" type="line"/>
      <point x="455" y="700" type="line" smooth="yes"/>
      <point x="599" y="700"/>
      <point x="693" y="641"/>
      <point x="672" y="522" type="curve" smooth="yes"/>
      <point x="652" y="410"/>
      <point x="537" y="348"/>
      <point x="393" y="348" type="curve" smooth="yes"/>
    </contour>
    <contour>
      <point x="197" y="700" type="line"/>
      <point x="366" y="700" type="line"/>
      <point x="243" y="0" type="line"/>
      <point x="74" y="0" type="line"/>
    </contour>
  </outline>
</glyph>
<glyph name="H" format="1">
  <advance width="786"/>
  <unicode hex="0048"/>
  <outline>
    <contour>
      <point x="172" y="293" type="line"/>
      <point x="198" y="445" type="line"/>
      <point x="728" y="445" type="line"/>
      <point x="702" y="293" type="line"/>
    </contour>
    <contour>
      <point x="667" y="700" type="line"/>
      <point x="836" y="700" type="line"/>
      <point x="713" y="0" type="line"/>
      <point x="544" y="0" type="line"/>
    </contour>
    <contour>
      <point x="197" y="700" type="line"/>
      <point x="366" y="700" type="line"/>
      <point x="243" y="0" type="line"/>
      <point x="74" y="0" type="line"/>
    </contour>
  </outline>
</glyph>
<glyph name="K" format="1">
  <advance width="700"/>
  <unicode hex="004B"/>
  <outline>
    <contour>
      <point x="197" y="700" type="line"/>
      <point x="373" y="700" type="line"/>
      <point x="250" y="0" type="line"/>
      <point x="74" y="0" type="line"/>
    </contour>
    <contour>
      <point x="610" y="700" type="line"/>
      <point x="809" y="700" type="line"/>
      <point x="468" y="372" type="line"/>
      <point x="701" y="0" type="line"/>
      <point x="496" y="0" type="line"/>
      <point x="265" y="367" type="line"/>
    </contour>
  </outline>
</glyph>
<glyph name="M" format="1">
  <advance width="891"/>
  <unicode hex="004D"/>
  <outline>
    <contour>
      <point x="706" y="486" type="line"/>
      <point x="874" y="735" type="line"/>
      <point x="858" y="0" type="line"/>
      <point x="678" y="0" type="line"/>
    </contour>
    <contour>
      <point x="277" y="735" type="line"/>
      <point x="356" y="486" type="line"/>
      <point x="212" y="0" type="line"/>
      <point x="34" y="0" type="line"/>
    </contour>
    <contour>
      <point x="874" y="735" type="line"/>
      <point x="834" y="510" type="line"/>
      <point x="457" y="65" type="line"/>
      <point x="237" y="510" type="line"/>
      <point x="277" y="735" type="line"/>
      <point x="500" y="308" type="line"/>
    </contour>
  </outline>
</glyph>
<glyph name="Y" format="1">
  <advance width="660"/>
  <unicode hex="0059"/>
  <outline>
    <contour>
      <point x="307" y="360" type="line"/>
      <point x="479" y="360" type="line"/>
      <point x="416" y="0" type="line"/>
      <point x="244" y="0" type="line"/>
    </contour>
    <contour>
      <point x="589" y="700" type="line"/>
      <point x="785" y="700" type="line"/>
      <point x="354" y="138" type="line"/>
      <point x="121" y="700" type="line"/>
      <point x="317" y="700" type="line"/>
      <point x="407" y="437" type="line"/>
    </contour>
  </outline>
</glyph>
<glyph name="backslash" format="1">
  <advance width="546"/>
  <unicode hex="005C"/>
  <outline>
    <contour>
      <point x="138" y="700" type="line"/>
      <point x="285" y="700" type="line"/>
      <point x="531" y="0" type="line"/>
      <point x="384" y="0" type="line"/>
    </contour>
  </outline>
</glyph>
<glyph name="h" format="1">
  <advance width="568"/>
  <unicode hex="0068"/>
  <outline>
    <contour>
      <point x="350" y="780" type="line"/>
      <point x="212" y="0" type="line"/>
      <point x="60" y="0" type="line"/>
      <point x="198" y="780" type="line"/>
    </contour>
    <contour>
      <point x="407" y="280" type="line" smooth="yes"/>
      <point x="417" y="334"/>
      <point x="405" y="364"/>
      <point x="355" y="364" type="curve" smooth="yes"/>
      <point x="307" y="364"/>
      <point x="271" y="334"/>
      <point x="261" y="280" type="curve"/>
      <point x="235" y="280" type="line"/>
      <point x="254" y="389"/>
      <point x="322" y="477"/>
      <point x="436" y="477" type="curve" smooth="yes"/>
      <point x="550" y="477"/>
      <point x="583" y="414"/>
      <point x="563" y="302" type="curve" smooth="yes"/>
      <point x="510" y="0" type="line"/>
      <point x="358" y="0" type="line"/>
    </contour>
  </outline>
</glyph>
<glyph name="k" format="1">
  <advance width="577"/>
  <unicode hex="006B"/>
  <outline>
    <contour>
      <point x="196" y="780" type="line"/>
      <point x="341" y="780" type="line"/>
      <point x="203" y="0" type="line"/>
      <point x="58" y="0" type="line"/>
    </contour>
    <contour>
      <point x="451" y="460" type="line"/>
      <point x="632" y="460" type="line"/>
      <point x="402" y="270" type="line"/>
      <point x="571" y="0" type="line"/>
      <point x="393" y="0" type="line"/>
      <point x="222" y="270" type="line"/>
    </contour>
  </outline>
</glyph>
<glyph name="m" format="1">
  <advance width="820"/>
  <unicode hex="006D"/>
  <outline>
    <contour>
      <point x="380" y="280" type="line" smooth="yes"/>
      <point x="390" y="334"/>
      <point x="379" y="364"/>
      <point x="336" y="364" type="curve" smooth="yes"/>
      <point x="294" y="364"/>
      <point x="264" y="334"/>
      <point x="254" y="280" type="curve"/>
      <point x="227" y="274" type="line"/>
      <point x="246" y="383"/>
      <point x="313" y="470"/>
      <point x="421" y="470" type="curve" smooth="yes"/>
      <point x="529" y="470"/>
      <point x="556" y="414"/>
      <point x="536" y="302" type="curve" smooth="yes"/>
      <point x="483" y="0" type="line"/>
      <point x="331" y="0" type="line"/>
    </contour>
    <contour>
      <point x="286" y="460" type="line"/>
      <point x="205" y="0" type="line"/>
      <point x="60" y="0" type="line"/>
      <point x="141" y="460" type="line"/>
    </contour>
    <contour>
      <point x="814" y="296" type="curve" smooth="yes"/>
      <point x="762" y="0" type="line"/>
      <point x="610" y="0" type="line"/>
      <point x="659" y="280" type="line" smooth="yes"/>
      <point x="669" y="334"/>
      <point x="657" y="364"/>
      <point x="614" y="364" type="curve" smooth="yes"/>
      <point x="572" y="364"/>
      <point x="542" y="334"/>
      <point x="532" y="280" type="curve"/>
      <point x="480" y="274" type="line"/>
      <point x="499" y="383"/>
      <point x="591" y="470"/>
      <point x="699" y="470" type="curve" smooth="yes"/>
      <point x="807" y="470"/>
      <point x="834" y="408"/>
    </contour>
  </outline>
</glyph>
<glyph name="w" format="1">
  <advance width="761"/>
  <unicode hex="0077"/>
  <outline>
    <contour>
      <point x="691" y="460" type="line"/>
      <point x="849" y="460" type="line"/>
      <point x="527" y="-28" type="line"/>
      <point x="526" y="176" type="line"/>
    </contour>
    <contour>
      <point x="401" y="300" type="line"/>
      <point x="465" y="495" type="line"/>
      <point x="574" y="164" type="line"/>
      <point x="527" y="-28" type="line"/>
    </contour>
    <contour>
      <point x="465" y="495" type="line"/>
      <point x="461" y="300" type="line"/>
      <point x="225" y="-28" type="line"/>
      <point x="245" y="164" type="line"/>
    </contour>
    <contour>
      <point x="73" y="460" type="line"/>
      <point x="233" y="460" type="line"/>
      <point x="297" y="176" type="line"/>
      <point x="225" y="-28" type="line"/>
    </contour>
  </outline>
</glyph>
<glyph name="y" format="1">
  <advance width="521"/>
  <unicode hex="0079"/>
  <outline>
    <contour>
      <point x="611" y="460" type="line"/>
      <point x="191" y="-220" type="line"/>
      <point x="39" y="-220" type="line"/>
      <point x="197" y="37" type="line"/>
      <point x="71" y="460" type="line"/>
      <point x="239" y="460" type="line"/>
      <point x="322" y="90" type="line"/>
      <point x="244" y="92" type="line"/>
      <point x="456" y="460" type="line"/>
    </contour>
  </outline>
</glyph>
<glyph name="braceright" format="1">
  <advance width="398"/>
  <unicode hex="007D"/>
  <outline>
    <contour>
      <point x="131" y="-30" type="curve" smooth="yes"/>
      <point x="152" y="90" type="line" smooth="yes"/>
      <point x="168" y="179"/>
      <point x="193" y="300"/>
      <point x="333" y="300" type="curve"/>
      <point x="329" y="280" type="line"/>
      <point x="189" y="280"/>
      <point x="206" y="401"/>
      <point x="222" y="490" type="curve" smooth="yes"/>
      <point x="244" y="610" type="line" smooth="yes"/>
      <point x="249" y="636"/>
      <point x="234" y="660"/>
      <point x="204" y="660" type="curve" smooth="yes"/>
      <point x="170" y="660" type="line"/>
      <point x="192" y="780" type="line"/>
      <point x="282" y="780" type="line" smooth="yes"/>
      <point x="364" y="780"/>
      <point x="434" y="739"/>
      <point x="417" y="640" type="curve" smooth="yes"/>
      <point x="384" y="455" type="line" smooth="yes"/>
      <point x="371" y="379"/>
      <point x="385" y="355"/>
      <point x="425" y="345" type="curve"/>
      <point x="405" y="235" type="line"/>
      <point x="361" y="225"/>
      <point x="339" y="201"/>
      <point x="326" y="125" type="curve" smooth="yes"/>
      <point x="293" y="-60" type="line" smooth="yes"/>
      <point x="276" y="-159"/>
      <point x="191" y="-200"/>
      <point x="109" y="-200" type="curve" smooth="yes"/>
      <point x="19" y="-200" type="line"/>
      <point x="40" y="-80" type="line"/>
      <point x="74" y="-80" type="line" smooth="yes"/>
      <point x="104" y="-80"/>
      <point x="126" y="-56"/>
    </contour>
  </outline>
</glyph>
<glyph name="dieresis" format="1">
  <advance width="511"/>
  <unicode hex="00A8"/>
  <outline>
    <contour>
      <point x="394" y="632" type="curve" smooth="yes"/>
      <point x="403" y="682"/>
      <point x="451" y="724"/>
      <point x="506" y="724" type="curve" smooth="yes"/>
      <point x="561" y="724"/>
      <point x="592" y="682"/>
      <point x="583" y="632" type="curve" smooth="yes"/>
      <point x="574" y="582"/>
      <point x="528" y="540"/>
      <point x="473" y="540" type="curve" smooth="yes"/>
      <point x="418" y="540"/>
      <point x="385" y="582"/>
    </contour>
    <contour>
      <point x="151" y="632" type="curve" smooth="yes"/>
      <point x="160" y="682"/>
      <point x="207" y="724"/>
      <point x="262" y="724" type="curve" smooth="yes"/>
      <point x="317" y="724"/>
      <point x="348" y="682"/>
      <point x="339" y="632" type="curve" smooth="yes"/>
      <point x="330" y="582"/>
      <point x="284" y="540"/>
      <point x="229" y="540" type="curve" smooth="yes"/>
      <point x="174" y="540"/>
      <point x="142" y="582"/>
    </contour>
  </outline>
</glyph>
<glyph name="guillemotleft" format="1">
  <advance width="541"/>
  <unicode hex="00AB"/>
  <outline>
    <contour>
      <point x="170" y="235" type="line"/>
      <point x="73" y="255" type="line"/>
      <point x="295" y="509" type="line"/>
      <point x="377" y="445" type="line"/>
    </contour>
    <contour>
      <point x="73" y="255" type="line"/>
      <point x="179" y="285" type="line"/>
      <point x="310" y="65" type="line"/>
      <point x="205" y="1" type="line"/>
    </contour>
    <contour>
      <point x="373" y="235" type="line"/>
      <point x="276" y="255" type="line"/>
      <point x="499" y="509" type="line"/>
      <point x="580" y="445" type="line"/>
    </contour>
    <contour>
      <point x="276" y="255" type="line"/>
      <point x="382" y="285" type="line"/>
      <point x="513" y="65" type="line"/>
      <point x="409" y="1" type="line"/>
    </contour>
  </outline>
</glyph>
<glyph name="acute" format="1">
  <advance width="375"/>
  <unicode hex="00B4"/>
  <outline>
    <contour>
      <point x="434" y="654" type="line"/>
      <point x="228" y="504" type="line"/>
      <point x="149" y="546" type="line"/>
      <point x="327" y="706" type="line"/>
    </contour>
  </outline>
</glyph>
<glyph name="Atilde" format="1">
  <advance width="735"/>
  <unicode hex="00C3"/>
  <outline>
    <contour>
      <point x="208" y="135" type="line"/>
      <point x="243" y="264" type="line"/>
      <point x="591" y="264" type="line"/>
      <point x="578" y="135" type="line"/>
    </contour>
    <contour>
      <point x="446" y="442" type="line"/>
      <point x="308" y="217" type="line"/>
      <point x="309" y="179" type="line"/>
      <point x="190" y="0" type="line"/>
      <point x="-2" y="0" type="line"/>
      <point x="499" y="744" type="line"/>
      <point x="736" y="0" type="line"/>
      <point x="544" y="0" type="line"/>
      <point x="490" y="172" type="line"/>
      <point x="504" y="216" type="line"/>
    </contour>
    <contour>
      <point x="324" y="862" type="line"/>
      <point x="343" y="911"/>
      <point x="396" y="957"/>
      <point x="460" y="957" type="curve" smooth="yes"/>
      <point x="526" y="957"/>
      <point x="532" y="905"/>
      <point x="588" y="905" type="curve" smooth="yes"/>
      <point x="614" y="905"/>
      <point x="635" y="926"/>
      <point x="661" y="958" type="curve"/>
      <point x="720" y="884" type="line"/>
      <point x="697" y="847"/>
      <point x="633" y="798"/>
      <point x="571" y="798" type="curve" smooth="yes"/>
      <point x="516" y="798"/>
      <point x="490" y="852"/>
      <point x="440" y="852" type="curve" smooth="yes"/>
      <point x="402" y="852"/>
      <point x="387" y="815"/>
      <point x="384" y="800" type="curve"/>
    </contour>
  </outline>
</glyph>
<glyph name="Adieresis" format="1">
  <advance width="735"/>
  <unicode hex="00C4"/>
  <outline>
    <contour>
      <point x="208" y="135" type="line"/>
      <point x="243" y="264" type="line"/>
      <point x="591" y="264" type="line"/>
      <point x="578" y="135" type="line"/>
    </contour>
    <contour>
      <point x="446" y="442" type="line"/>
      <point x="308" y="217" type="line"/>
      <point x="309" y="179" type="line"/>
      <point x="190" y="0" type="line"/>
      <point x="-2" y="0" type="line"/>
      <point x="499" y="744" type="line"/>
      <point x="736" y="0" type="line"/>
      <point x="544" y="0" type="line"/>
      <point x="490" y="172" type="line"/>
      <point x="504" y="216" type="line"/>
    </contour>
    <contour>
      <point x="572" y="828" type="curve" smooth="yes"/>
      <point x="581" y="878"/>
      <point x="627" y="920"/>
      <point x="682" y="920" type="curve" smooth="yes"/>
      <point x="737" y="920"/>
      <point x="770" y="878"/>
      <point x="761" y="828" type="curve" smooth="yes"/>
      <point x="752" y="778"/>
      <point x="705" y="736"/>
      <point x="650" y="736" type="curve" smooth="yes"/>
      <point x="595" y="736"/>
      <point x="563" y="778"/>
    </contour>
    <contour>
      <point x="266" y="828" type="curve" smooth="yes"/>
      <point x="275" y="878"/>
      <point x="321" y="920"/>
      <point x="376" y="920" type="curve" smooth="yes"/>
      <point x="431" y="920"/>
      <point x="463" y="878"/>
      <point x="454" y="828" type="curve" smooth="yes"/>
      <point x="445" y="778"/>
      <point x="399" y="736"/>
      <point x="344" y="736" type="curve" smooth="yes"/>
      <point x="289" y="736"/>
      <point x="257" y="778"/>
    </contour>
  </outline>
</glyph>
<glyph name="AE" format="1">
  <advance width="1085"/>
  <unicode hex="00C6"/>
  <outline>
    <contour>
      <point x="296" y="150" type="line"/>
      <point x="330" y="306" type="line"/>
      <point x="630" y="306" type="line"/>
      <point x="602" y="150" type="line"/>
    </contour>
    <contour>
      <point x="561" y="700" type="line"/>
      <point x="717" y="660" type="line"/>
      <point x="228" y="0" type="line"/>
      <point x="14" y="0" type="line"/>
    </contour>
    <contour>
      <point x="630" y="0" type="line"/>
      <point x="655" y="140" type="line"/>
      <point x="1040" y="140" type="line"/>
      <point x="1015" y="0" type="line"/>
    </contour>
    <contour>
      <point x="737" y="560" type="line"/>
      <point x="561" y="700" type="line"/>
      <point x="1138" y="700" type="line"/>
      <point x="1114" y="560" type="line"/>
    </contour>
    <contour>
      <point x="683" y="300" type="line"/>
      <point x="707" y="436" type="line"/>
      <point x="1072" y="436" type="line"/>
      <point x="1048" y="300" type="line"/>
    </contour>
    <contour>
      <point x="673" y="700" type="line"/>
      <point x="855" y="700" type="line"/>
      <point x="732" y="0" type="line"/>
      <point x="550" y="0" type="line"/>
    </contour>
  </outline>
</glyph>
<glyph name="Ccedilla" format="1">
  <advance width="700"/>
  <unicode hex="00C7"/>
  <outline>
    <contour>
      <point x="281" y="350" type="curve" smooth="yes"/>
      <point x="258" y="222"/>
      <point x="341" y="145"/>
      <point x="454" y="145" type="curve" smooth="yes"/>
      <point x="553" y="145"/>
      <point x="624" y="188"/>
      <point x="679" y="238" type="curve"/>
      <point x="647" y="54" type="line"/>
      <point x="583" y="11"/>
      <point x="517" y="-16"/>
      <point x="415" y="-16" type="curve" smooth="yes"/>
      <point x="190" y="-16"/>
      <point x="58" y="132"/>
      <point x="96" y="350" type="curve" smooth="yes"/>
      <point x="134" y="568"/>
      <point x="319" y="716"/>
      <point x="544" y="716" type="curve" smooth="yes"/>
      <point x="646" y="716"/>
      <point x="703" y="689"/>
      <point x="751" y="646" type="curve"/>
      <point x="718" y="462" type="line"/>
      <point x="681" y="512"/>
      <point x="625" y="555"/>
      <point x="526" y="555" type="curve" smooth="yes"/>
      <point x="413" y="555"/>
      <point x="304" y="478"/>
    </contour>
    <contour>
      <point x="377" y="60" type="line"/>
      <point x="486" y="56" type="line"/>
      <point x="354" y="-90" type="line"/>
      <point x="254" y="-134" type="line"/>
    </contour>
    <contour>
      <point x="490" y="-160" type="curve"/>
      <point x="394" y="-151" type="line"/>
      <point x="399" y="-125"/>
      <point x="370" y="-118"/>
      <point x="339" y="-118" type="curve" smooth="yes"/>
      <point x="329" y="-118"/>
      <point x="293" y="-119"/>
      <point x="254" y="-134" type="curve"/>
      <point x="326" y="-90" type="line"/>
      <point x="357" y="-65"/>
      <point x="383" y="-62"/>
      <point x="415" y="-62" type="curve" smooth="yes"/>
      <point x="455" y="-62"/>
      <point x="502" y="-94"/>
    </contour>
    <contour>
      <point x="490" y="-160" type="line"/>
      <point x="477" y="-232"/>
      <point x="402" y="-268"/>
      <point x="339" y="-268" type="curve" smooth="yes"/>
      <point x="283" y="-268"/>
      <point x="243" y="-260"/>
      <point x="201" y="-230" type="curve"/>
      <point x="260" y="-160" type="line"/>
      <point x="283" y="-178"/>
      <point x="313" y="-186"/>
      <point x="333" y="-186" type="curve" smooth="yes"/>
      <point x="367" y="-186"/>
      <point x="390" y="-175"/>
      <point x="394" y="-151" type="curve"/>
    </contour>
  </outline>
</glyph>
<glyph name="Ntilde" format="1">
  <advance width="793"/>
  <unicode hex="00D1"/>
  <outline>
    <contour>
      <point x="170" y="524" type="line"/>
      <point x="204" y="735" type="line"/>
      <point x="746" y="176" type="line"/>
      <point x="714" y="-35" type="line"/>
    </contour>
    <contour>
      <point x="680" y="700" type="line"/>
      <point x="843" y="700" type="line"/>
      <point x="714" y="-35" type="line"/>
      <point x="583" y="150" type="line"/>
    </contour>
    <contour>
      <point x="204" y="735" type="line"/>
      <point x="334" y="550" type="line"/>
      <point x="237" y="0" type="line"/>
      <point x="74" y="0" type="line"/>
    </contour>
    <contour>
      <point x="373" y="840" type="line"/>
      <point x="392" y="889"/>
      <point x="447" y="922"/>
      <point x="492" y="922" type="curve" smooth="yes"/>
      <point x="557" y="922"/>
      <point x="553" y="874"/>
      <point x="607" y="874" type="curve" smooth="yes"/>
      <point x="626" y="874"/>
      <point x="646" y="890"/>
      <point x="672" y="922" type="curve"/>
      <point x="710" y="880" type="line"/>
      <point x="687" y="843"/>
      <point x="641" y="806"/>
      <point x="591" y="806" type="curve" smooth="yes"/>
      <point x="536" y="806"/>
      <point x="524" y="854"/>
      <point x="479" y="854" type="curve" smooth="yes"/>
      <point x="438" y="854"/>
      <point x="422" y="817"/>
      <point x="419" y="802" type="curve"/>
    </contour>
  </outline>
</glyph>
<glyph name="multiply" format="1">
  <advance width="596"/>
  <unicode hex="00D7"/>
  <outline>
    <contour>
      <point x="141" y="3" type="line"/>
      <point x="63" y="97" type="line"/>
      <point x="254" y="255" type="line"/>
      <point x="119" y="413" type="line"/>
      <point x="229" y="507" type="line"/>
      <point x="359" y="344" type="line"/>
      <point x="545" y="507" type="line"/>
      <point x="623" y="413" type="line"/>
      <point x="432" y="255" type="line"/>
      <point x="567" y="97" type="line"/>
      <point x="457" y="3" type="line"/>
      <point x="327" y="166" type="line"/>
    </contour>
  </outline>
</glyph>
<glyph name="Udieresis" format="1">
  <advance width="701"/>
  <unicode hex="00DC"/>
  <outline>
    <contour>
      <point x="191" y="700" type="line"/>
      <point x="361" y="700" type="line"/>
      <point x="281" y="242" type="line" smooth="yes"/>
      <point x="268" y="171"/>
      <point x="297" y="123"/>
      <point x="372" y="123" type="curve" smooth="yes"/>
      <point x="447" y="123"/>
      <point x="493" y="171"/>
      <point x="506" y="242" type="curve" smooth="yes"/>
      <point x="586" y="700" type="line"/>
      <point x="755" y="700" type="line"/>
      <point x="673" y="230" type="line" smooth="yes"/>
      <point x="642" y="54"/>
      <point x="503" y="-29"/>
      <point x="345" y="-29" type="curve" smooth="yes"/>
      <point x="187" y="-29"/>
      <point x="78" y="54"/>
      <point x="109" y="230" type="curve" smooth="yes"/>
    </contour>
    <contour>
      <point x="544" y="868" type="curve" smooth="yes"/>
      <point x="553" y="918"/>
      <point x="600" y="961"/>
      <point x="655" y="961" type="curve" smooth="yes"/>
      <point x="710" y="961"/>
      <point x="742" y="918"/>
      <point x="733" y="868" type="curve" smooth="yes"/>
      <point x="724" y="818"/>
      <point x="678" y="776"/>
      <point x="623" y="776" type="curve" smooth="yes"/>
      <point x="568" y="776"/>
      <point x="535" y="818"/>
    </contour>
    <contour>
      <point x="274" y="868" type="curve" smooth="yes"/>
      <point x="283" y="918"/>
      <point x="330" y="961"/>
      <point x="385" y="961" type="curve" smooth="yes"/>
      <point x="440" y="961"/>
      <point x="472" y="918"/>
      <point x="463" y="868" type="curve" smooth="yes"/>
      <point x="454" y="818"/>
      <point x="408" y="776"/>
      <point x="353" y="776" type="curve" smooth="yes"/>
      <point x="298" y="776"/>
      <point x="265" y="818"/>
    </contour>
  </outline>
</glyph>
<glyph name="agrave" format="1">
  <advance width="544"/>
  <unicode hex="00E0"/>
  <outline>
    <contour>
      <point x="200" y="138" type="curve" smooth="yes"/>
      <point x="194" y="104"/>
      <point x="218" y="89"/>
      <point x="258" y="89" type="curve" smooth="yes"/>
      <point x="313" y="89"/>
      <point x="365" y="112"/>
      <point x="378" y="186" type="curve"/>
      <point x="384" y="130" type="line"/>
      <point x="368" y="41"/>
      <point x="284" y="-10"/>
      <point x="189" y="-10" type="curve" smooth="yes"/>
      <point x="87" y="-10"/>
      <point x="32" y="41"/>
      <point x="47" y="128" type="curve" smooth="yes"/>
      <point x="64" y="222"/>
      <point x="154" y="279"/>
      <point x="272" y="279" type="curve" smooth="yes"/>
      <point x="341" y="279"/>
      <point x="403" y="252"/>
      <point x="419" y="230" type="curve"/>
      <point x="406" y="158" type="line"/>
      <point x="377" y="184"/>
      <point x="345" y="197"/>
      <point x="293" y="197" type="curve" smooth="yes"/>
      <point x="241" y="197"/>
      <point x="206" y="174"/>
    </contour>
    <contour>
      <point x="174" y="318" type="curve"/>
      <point x="140" y="420" type="line"/>
      <point x="197" y="445"/>
      <point x="276" y="473"/>
      <point x="359" y="473" type="curve" smooth="yes"/>
      <point x="483" y="473"/>
      <point x="564" y="420"/>
      <point x="547" y="324" type="curve" smooth="yes"/>
      <point x="490" y="0" type="line"/>
      <point x="345" y="0" type="line"/>
      <point x="397" y="294" type="line" smooth="yes"/>
      <point x="404" y="333"/>
      <point x="377" y="358"/>
      <point x="327" y="358" type="curve" smooth="yes"/>
      <point x="261" y="358"/>
      <point x="198" y="331"/>
    </contour>
    <contour>
      <point x="224" y="683" type="line"/>
      <point x="350" y="736" type="line"/>
      <point x="472" y="576" type="line"/>
      <point x="378" y="533" type="line"/>
    </contour>
  </outline>
</glyph>
<glyph name="aring" format="1">
  <advance width="544"/>
  <unicode hex="00E5"/>
  <outline>
    <contour>
      <point x="200" y="138" type="curve" smooth="yes"/>
      <point x="194" y="104"/>
      <point x="218" y="89"/>
      <point x="258" y="89" type="curve" smooth="yes"/>
      <point x="313" y="89"/>
      <point x="365" y="112"/>
      <point x="378" y="186" type="curve"/>
      <point x="384" y="130" type="line"/>
      <point x="368" y="41"/>
      <point x="284" y="-10"/>
      <point x="189" y="-10" type="curve" smooth="yes"/>
      <point x="87" y="-10"/>
      <point x="32" y="41"/>
      <point x="47" y="128" type="curve" smooth="yes"/>
      <point x="64" y="222"/>
      <point x="154" y="279"/>
      <point x="272" y="279" type="curve" smooth="yes"/>
      <point x="341" y="279"/>
      <point x="403" y="252"/>
      <point x="419" y="230" type="curve"/>
      <point x="406" y="158" type="line"/>
      <point x="377" y="184"/>
      <point x="345" y="197"/>
      <point x="293" y="197" type="curve" smooth="yes"/>
      <point x="241" y="197"/>
      <point x="206" y="174"/>
    </contour>
    <contour>
      <point x="174" y="318" type="curve"/>
      <point x="140" y="420" type="line"/>
      <point x="197" y="445"/>
      <point x="276" y="473"/>
      <point x="359" y="473" type="curve" smooth="yes"/>
      <point x="483" y="473"/>
      <point x="564" y="420"/>
      <point x="547" y="324" type="curve" smooth="yes"/>
      <point x="490" y="0" type="line"/>
      <point x="345" y="0" type="line"/>
      <point x="397" y="294" type="line" smooth="yes"/>
      <point x="404" y="333"/>
      <point x="377" y="358"/>
      <point x="327" y="358" type="curve" smooth="yes"/>
      <point x="261" y="358"/>
      <point x="198" y="331"/>
    </contour>
    <contour>
      <point x="265" y="649" type="curve" smooth="yes"/>
      <point x="277" y="718"/>
      <point x="341" y="764"/>
      <point x="411" y="764" type="curve" smooth="yes"/>
      <point x="481" y="764"/>
      <point x="527" y="718"/>
      <point x="515" y="649" type="curve" smooth="yes"/>
      <point x="503" y="580"/>
      <point x="440" y="533"/>
      <point x="370" y="533" type="curve" smooth="yes"/>
      <point x="300" y="533"/>
      <point x="253" y="580"/>
    </contour>
    <contour>
      <point x="344" y="649" type="curve" smooth="yes"/>
      <point x="339" y="619"/>
      <point x="357" y="602"/>
      <point x="382" y="602" type="curve" smooth="yes"/>
      <point x="407" y="602"/>
      <point x="431" y="619"/>
      <point x="436" y="649" type="curve" smooth="yes"/>
      <point x="441" y="679"/>
      <point x="424" y="696"/>
      <point x="399" y="696" type="curve" smooth="yes"/>
      <point x="374" y="696"/>
      <point x="349" y="679"/>
    </contour>
  </outline>
</glyph>
<glyph name="edieresis" format="1">
  <advance width="573"/>
  <unicode hex="00EB"/>
  <outline>
    <contour>
      <point x="131" y="198" type="line"/>
      <point x="146" y="282" type="line"/>
      <point x="572" y="282" type="line"/>
      <point x="573" y="198" type="line"/>
    </contour>
    <contour>
      <point x="423" y="244" type="line" smooth="yes"/>
      <point x="437" y="324"/>
      <point x="418" y="369"/>
      <point x="353" y="369" type="curve" smooth="yes"/>
      <point x="292" y="369"/>
      <point x="245" y="328"/>
      <point x="232" y="254" type="curve"/>
      <point x="226" y="230" type="line"/>
      <point x="209" y="136"/>
      <point x="250" y="100"/>
      <point x="309" y="100" type="curve" smooth="yes"/>
      <point x="363" y="100"/>
      <point x="404" y="120"/>
      <point x="433" y="158" type="curve"/>
      <point x="563" y="126" type="line"/>
      <point x="503" y="44"/>
      <point x="424" y="-10"/>
      <point x="292" y="-10" type="curve" smooth="yes"/>
      <point x="124" y="-10"/>
      <point x="48" y="91"/>
      <point x="73" y="230" type="curve" smooth="yes"/>
      <point x="76" y="247"/>
      <point x="79" y="263"/>
      <point x="85" y="279" type="curve" smooth="yes"/>
      <point x="124" y="392"/>
      <point x="224" y="470"/>
      <point x="374" y="470" type="curve" smooth="yes"/>
      <point x="535" y="470"/>
      <point x="608" y="382"/>
      <point x="582" y="237" type="curve" smooth="yes"/>
      <point x="581" y="229"/>
      <point x="578" y="214"/>
      <point x="573" y="198" type="curve"/>
      <point x="418" y="218" type="line"/>
    </contour>
    <contour>
      <point x="428" y="623" type="curve" smooth="yes"/>
      <point x="437" y="673"/>
      <point x="484" y="716"/>
      <point x="539" y="716" type="curve" smooth="yes"/>
      <point x="594" y="716"/>
      <point x="627" y="673"/>
      <point x="618" y="623" type="curve" smooth="yes"/>
      <point x="609" y="573"/>
      <point x="561" y="530"/>
      <point x="506" y="530" type="curve" smooth="yes"/>
      <point x="451" y="530"/>
      <point x="419" y="573"/>
    </contour>
    <contour>
      <point x="185" y="623" type="curve" smooth="yes"/>
      <point x="194" y="673"/>
      <point x="241" y="716"/>
      <point x="296" y="716" type="curve" smooth="yes"/>
      <point x="351" y="716"/>
      <point x="383" y="673"/>
      <point x="374" y="623" type="curve" smooth="yes"/>
      <point x="365" y="573"/>
      <point x="318" y="530"/>
      <point x="263" y="530" type="curve" smooth="yes"/>
      <point x="208" y="530"/>
      <point x="176" y="573"/>
    </contour>
  </outline>
</glyph>
<glyph name="igrave" format="1">
  <advance width="276"/>
  <unicode hex="00EC"/>
  <outline>
    <contour>
      <point x="145" y="460" type="line"/>
      <point x="292" y="460" type="line"/>
      <point x="211" y="0" type="line"/>
      <point x="64" y="0" type="line"/>
    </contour>
    <contour>
      <point x="79" y="688" type="line"/>
      <point x="203" y="740" type="line"/>
      <point x="325" y="580" type="line"/>
      <point x="233" y="538" type="line"/>
    </contour>
  </outline>
</glyph>
<glyph name="idieresis" format="1">
  <advance width="276"/>
  <unicode hex="00EF"/>
  <outline>
    <contour>
      <point x="145" y="460" type="line"/>
      <point x="292" y="460" type="line"/>
      <point x="211" y="0" type="line"/>
      <point x="64" y="0" type="line"/>
    </contour>
    <contour>
      <point x="278" y="634" type="curve" smooth="yes"/>
      <point x="287" y="684"/>
      <point x="333" y="727"/>
      <point x="388" y="727" type="curve" smooth="yes"/>
      <point x="443" y="727"/>
      <point x="475" y="684"/>
      <point x="466" y="634" type="curve" smooth="yes"/>
      <point x="457" y="584"/>
      <point x="411" y="542"/>
      <point x="356" y="542" type="curve" smooth="yes"/>
      <point x="301" y="542"/>
      <point x="269" y="584"/>
    </contour>
    <contour>
      <point x="34" y="634" type="curve" smooth="yes"/>
      <point x="43" y="684"/>
      <point x="89" y="727"/>
      <point x="144" y="727" type="curve" smooth="yes"/>
      <point x="199" y="727"/>
      <point x="231" y="684"/>
      <point x="222" y="634" type="curve" smooth="yes"/>
      <point x="213" y="584"/>
      <point x="167" y="542"/>
      <point x="112" y="542" type="curve" smooth="yes"/>
      <point x="57" y="542"/>
      <point x="25" y="584"/>
    </contour>
  </outline>
</glyph>
<glyph name="eth" format="1">
  <advance width="669"/>
  <unicode hex="00F0"/>
  <outline>
    <contour>
      <point x="495" y="246" type="curve" smooth="yes"/>
      <point x="508" y="317"/>
      <point x="466" y="365"/>
      <point x="399" y="365" type="curve" smooth="yes"/>
      <point x="332" y="365"/>
      <point x="274" y="317"/>
      <point x="261" y="246" type="curve" smooth="yes"/>
      <point x="248" y="175"/>
      <point x="291" y="128"/>
      <point x="358" y="128" type="curve" smooth="yes"/>
      <point x="425" y="128"/>
      <point x="482" y="175"/>
    </contour>
    <contour>
      <point x="459" y="697" type="line"/>
      <point x="616" y="440" type="line" smooth="yes"/>
      <point x="652" y="384"/>
      <point x="676" y="322"/>
      <point x="663" y="246" type="curve" smooth="yes"/>
      <point x="633" y="74"/>
      <point x="489" y="-16"/>
      <point x="332" y="-16" type="curve" smooth="yes"/>
      <point x="175" y="-16"/>
      <point x="63" y="74"/>
      <point x="93" y="246" type="curve" smooth="yes"/>
      <point x="118" y="388"/>
      <point x="246" y="474"/>
      <point x="350" y="474" type="curve" smooth="yes"/>
      <point x="400" y="474"/>
      <point x="428" y="465"/>
      <point x="460" y="429" type="curve"/>
      <point x="426" y="444" type="line"/>
      <point x="245" y="697" type="line"/>
    </contour>
    <contour>
      <point x="228" y="520" type="line"/>
      <point x="241" y="598" type="line"/>
      <point x="679" y="598" type="line"/>
      <point x="666" y="520" type="line"/>
    </contour>
  </outline>
</glyph>
<glyph name="divide" format="1">
  <advance width="639"/>
  <unicode hex="00F7"/>
  <outline>
    <contour>
      <point x="323" y="553" type="curve" smooth="yes"/>
      <point x="332" y="603"/>
      <point x="379" y="646"/>
      <point x="434" y="646" type="curve" smooth="yes"/>
      <point x="489" y="646"/>
      <point x="521" y="603"/>
      <point x="512" y="553" type="curve" smooth="yes"/>
      <point x="503" y="503"/>
      <point x="456" y="460"/>
      <point x="401" y="460" type="curve" smooth="yes"/>
      <point x="346" y="460"/>
      <point x="314" y="503"/>
    </contour>
    <contour>
      <point x="242" y="98" type="curve" smooth="yes"/>
      <point x="251" y="148"/>
      <point x="299" y="190"/>
      <point x="354" y="190" type="curve" smooth="yes"/>
      <point x="409" y="190"/>
      <point x="440" y="148"/>
      <point x="431" y="98" type="curve" smooth="yes"/>
      <point x="422" y="48"/>
      <point x="376" y="6"/>
      <point x="321" y="6" type="curve" smooth="yes"/>
      <point x="266" y="6"/>
      <point x="233" y="48"/>
    </contour>
    <contour>
      <point x="72" y="260" type="line"/>
      <point x="96" y="396" type="line"/>
      <point x="683" y="396" type="line"/>
      <point x="659" y="260" type="line"/>
    </contour>
  </outline>
</glyph>
<glyph name="ucircumflex" format="1">
  <advance width="575"/>
  <unicode hex="00FB"/>
  <outline>
    <contour>
      <point x="364" y="0" type="line"/>
      <point x="445" y="460" type="line"/>
      <point x="597" y="460" type="line"/>
      <point x="516" y="0" type="line"/>
    </contour>
    <contour>
      <point x="250" y="180" type="line" smooth="yes"/>
      <point x="240" y="126"/>
      <point x="251" y="96"/>
      <point x="301" y="96" type="curve" smooth="yes"/>
      <point x="349" y="96"/>
      <point x="386" y="126"/>
      <point x="396" y="180" type="curve"/>
      <point x="427" y="186" type="line"/>
      <point x="408" y="77"/>
      <point x="336" y="-10"/>
      <point x="222" y="-10" type="curve" smooth="yes"/>
      <point x="108" y="-10"/>
      <point x="69" y="52"/>
      <point x="89" y="164" type="curve" smooth="yes"/>
      <point x="141" y="460" type="line"/>
      <point x="299" y="460" type="line"/>
    </contour>
    <contour>
      <point x="397" y="624" type="line"/>
      <point x="291" y="538" type="line"/>
      <point x="198" y="610" type="line"/>
      <point x="419" y="750" type="line"/>
      <point x="592" y="610" type="line"/>
      <point x="473" y="538" type="line"/>
    </contour>
  </outline>
</glyph>
<glyph name="thorn" format="1">
  <advance width="616"/>
  <unicode hex="00FE"/>
  <outline>
    <contour>
      <point x="281" y="405" type="line"/>
      <point x="141" y="-220" type="line"/>
      <point x="85" y="155" type="line"/>
      <point x="226" y="780" type="line"/>
    </contour>
    <contour>
      <point x="626" y="230" type="curve" smooth="yes"/>
      <point x="598" y="74"/>
      <point x="476" y="-10"/>
      <point x="364" y="-10" type="curve" smooth="yes"/>
      <point x="249" y="-10"/>
      <point x="182" y="81"/>
      <point x="208" y="230" type="curve" smooth="yes"/>
      <point x="234" y="379"/>
      <point x="334" y="470"/>
      <point x="449" y="470" type="curve" smooth="yes"/>
      <point x="561" y="470"/>
      <point x="654" y="386"/>
    </contour>
    <contour>
      <point x="467" y="230" type="curve" smooth="yes"/>
      <point x="480" y="302"/>
      <point x="437" y="348"/>
      <point x="377" y="348" type="curve" smooth="yes"/>
      <point x="326" y="348"/>
      <point x="264" y="305"/>
      <point x="251" y="230" type="curve" smooth="yes"/>
      <point x="238" y="155"/>
      <point x="285" y="112"/>
      <point x="336" y="112" type="curve" smooth="yes"/>
      <point x="396" y="112"/>
      <point x="454" y="158"/>
    </contour>
  </outline>
</glyph>
<glyph name="ydieresis" format="1">
  <advance width="521"/>
  <unicode hex="00FF"/>
  <outline>
    <contour>
      <point x="611" y="460" type="line"/>
      <point x="191" y="-220" type="line"/>
      <point x="39" y="-220" type="line"/>
      <point x="197" y="37" type="line"/>
      <point x="71" y="460" type="line"/>
      <point x="239" y="460" type="line"/>
      <point x="322" y="90" type="line"/>
      <point x="244" y="92" type="line"/>
      <point x="456" y="460" type="line"/>
    </contour>
    <contour>
      <point x="398" y="623" type="curve" smooth="yes"/>
      <point x="407" y="673"/>
      <point x="453" y="716"/>
      <point x="508" y="716" type="curve" smooth="yes"/>
      <point x="563" y="716"/>
      <point x="596" y="673"/>
      <point x="587" y="623" type="curve" smooth="yes"/>
      <point x="578" y="573"/>
      <point x="530" y="530"/>
      <point x="475" y="530" type="curve" smooth="yes"/>
      <point x="420" y="530"/>
      <point x="389" y="573"/>
    </contour>
    <contour>
      <point x="154" y="623" type="curve" smooth="yes"/>
      <point x="163" y="673"/>
      <point x="210" y="716"/>
      <point x="265" y="716" type="curve" smooth="yes"/>
      <point x="320" y="716"/>
      <point x="352" y="673"/>
      <point x="343" y="623" type="curve" smooth="yes"/>
      <point x="334" y="573"/>
      <point x="287" y="530"/>
      <point x="232" y="530" type="curve" smooth="yes"/>
      <point x="177" y="530"/>
      <point x="145" y="573"/>
    </contour>
  </outline>
</glyph>
<glyph name="Abreve" format="1">
  <advance width="735"/>
  <unicode hex="0102"/>
  <outline>
    <contour>
      <point x="208" y="135" type="line"/>
      <point x="243" y="264" type="line"/>
      <point x="591" y="264" type="line"/>
      <point x="578" y="135" type="line"/>
    </contour>
    <contour>
      <point x="446" y="442" type="line"/>
      <point x="308" y="217" type="line"/>
      <point x="309" y="179" type="line"/>
      <point x="190" y="0" type="line"/>
      <point x="-2" y="0" type="line"/>
      <point x="499" y="744" type="line"/>
      <point x="736" y="0" type="line"/>
      <point x="544" y="0" type="line"/>
      <point x="490" y="172" type="line"/>
      <point x="504" y="216" type="line"/>
    </contour>
    <contour>
      <point x="371" y="950" type="curve"/>
      <point x="470" y="950" type="line"/>
      <point x="464" y="914"/>
      <point x="486" y="891"/>
      <point x="525" y="891" type="curve" smooth="yes"/>
      <point x="564" y="891"/>
      <point x="594" y="914"/>
      <point x="600" y="950" type="curve"/>
      <point x="700" y="950" type="line"/>
      <point x="686" y="868"/>
      <point x="615" y="804"/>
      <point x="510" y="804" type="curve" smooth="yes"/>
      <point x="405" y="804"/>
      <point x="357" y="868"/>
    </contour>
  </outline>
</glyph>
<glyph name="Aogonek" format="1">
  <advance width="735"/>
  <unicode hex="0104"/>
  <outline>
    <contour>
      <point x="208" y="135" type="line"/>
      <point x="243" y="264" type="line"/>
      <point x="591" y="264" type="line"/>
      <point x="578" y="135" type="line"/>
    </contour>
    <contour>
      <point x="446" y="442" type="line"/>
      <point x="308" y="217" type="line"/>
      <point x="309" y="179" type="line"/>
      <point x="190" y="0" type="line"/>
      <point x="-2" y="0" type="line"/>
      <point x="499" y="744" type="line"/>
      <point x="736" y="0" type="line"/>
      <point x="544" y="0" type="line"/>
      <point x="490" y="172" type="line"/>
      <point x="504" y="216" type="line"/>
    </contour>
    <contour>
      <point x="686" y="-103" type="curve"/>
      <point x="706" y="-172" type="line"/>
      <point x="687" y="-192"/>
      <point x="655" y="-212"/>
      <point x="599" y="-212" type="curve" smooth="yes"/>
      <point x="534" y="-212"/>
      <point x="488" y="-178"/>
      <point x="500" y="-112" type="curve"/>
      <point x="603" y="-86" type="line"/>
      <point x="599" y="-111"/>
      <point x="608" y="-123"/>
      <point x="632" y="-123" type="curve" smooth="yes"/>
      <point x="652" y="-123"/>
      <point x="670" y="-116"/>
    </contour>
    <contour>
      <point x="603" y="-86" type="curve"/>
      <point x="500" y="-112" type="line"/>
      <point x="512" y="-46"/>
      <point x="588" y="-3"/>
      <point x="664" y="33" type="curve"/>
      <point x="699" y="8" type="line"/>
      <point x="642" y="-20"/>
      <point x="608" y="-56"/>
    </contour>
  </outline>
</glyph>
<glyph name="Edotaccent" format="1">
  <advance width="603"/>
  <unicode hex="0116"/>
  <outline>
    <contour>
      <point x="186" y="0" type="line"/>
      <point x="211" y="140" type="line"/>
      <point x="565" y="140" type="line"/>
      <point x="540" y="0" type="line"/>
    </contour>
    <contour>
      <point x="285" y="560" type="line"/>
      <point x="309" y="700" type="line"/>
      <point x="663" y="700" type="line"/>
      <point x="639" y="560" type="line"/>
    </contour>
    <contour>
      <point x="239" y="300" type="line"/>
      <point x="263" y="436" type="line"/>
      <point x="597" y="436" type="line"/>
      <point x="573" y="300" type="line"/>
    </contour>
    <contour>
      <point x="197" y="700" type="line"/>
      <point x="360" y="700" type="line"/>
      <point x="237" y="0" type="line"/>
      <point x="74" y="0" type="line"/>
    </contour>
    <contour>
      <point x="365" y="868" type="curve" smooth="yes"/>
      <point x="374" y="918"/>
      <point x="420" y="961"/>
      <point x="475" y="961" type="curve" smooth="yes"/>
      <point x="530" y="961"/>
      <point x="562" y="918"/>
      <point x="553" y="868" type="curve" smooth="yes"/>
      <point x="544" y="818"/>
      <point x="498" y="776"/>
      <point x="443" y="776" type="curve" smooth="yes"/>
      <point x="388" y="776"/>
      <point x="356" y="818"/>
    </contour>
  </outline>
</glyph>
<glyph name="hcircumflex" format="1">
  <advance width="568"/>
  <unicode hex="0125"/>
  <outline>
    <contour>
      <point x="350" y="780" type="line"/>
      <point x="212" y="0" type="line"/>
      <point x="60" y="0" type="line"/>
      <point x="198" y="780" type="line"/>
    </contour>
    <contour>
      <point x="407" y="280" type="line" smooth="yes"/>
      <point x="417" y="334"/>
      <point x="405" y="364"/>
      <point x="355" y="364" type="curve" smooth="yes"/>
      <point x="307" y="364"/>
      <point x="271" y="334"/>
      <point x="261" y="280" type="curve"/>
      <point x="231" y="280" type="line"/>
      <point x="250" y="389"/>
      <point x="322" y="477"/>
      <point x="436" y="477" type="curve" smooth="yes"/>
      <point x="550" y="477"/>
      <point x="583" y="414"/>
      <point x="563" y="302" type="curve" smooth="yes"/>
      <point x="510" y="0" type="line"/>
      <point x="358" y="0" type="line"/>
    </contour>
    <contour>
      <point x="395" y="926" type="line"/>
      <point x="289" y="840" type="line"/>
      <point x="195" y="911" type="line"/>
      <point x="417" y="1051" type="line"/>
      <point x="591" y="911" type="line"/>
      <point x="471" y="840" type="line"/>
    </contour>
  </outline>
</glyph>
<glyph name="Idotaccent" format="1">
  <advance width="320"/>
  <unicode hex="0130"/>
  <outline>
    <contour>
      <point x="197" y="700" type="line"/>
      <point x="369" y="700" type="line"/>
      <point x="246" y="0" type="line"/>
      <point x="74" y="0" type="line"/>
    </contour>
    <contour>
      <point x="218" y="868" type="curve" smooth="yes"/>
      <point x="227" y="918"/>
      <point x="274" y="961"/>
      <point x="329" y="961" type="curve" smooth="yes"/>
      <point x="384" y="961"/>
      <point x="416" y="918"/>
      <point x="407" y="868" type="curve" smooth="yes"/>
      <point x="398" y="818"/>
      <point x="352" y="776"/>
      <point x="297" y="776" type="curve" smooth="yes"/>
      <point x="242" y="776"/>
      <point x="209" y="818"/>
    </contour>
  </outline>
</glyph>
<glyph name="Jcircumflex" format="1">
  <advance width="330"/>
  <unicode hex="0134"/>
  <outline>
    <contour>
      <point x="-83" y="-64" type="line"/>
      <point x="-66" y="-82"/>
      <point x="-38" y="-96"/>
      <point x="-8" y="-96" type="curve" smooth="yes"/>
      <point x="22" y="-96"/>
      <point x="60" y="-76"/>
      <point x="71" y="-16" type="curve" smooth="yes"/>
      <point x="197" y="700" type="line"/>
      <point x="380" y="700" type="line"/>
      <point x="247" y="-54" type="line" smooth="yes"/>
      <point x="223" y="-188"/>
      <point x="109" y="-239"/>
      <point x="-16" y="-239" type="curve" smooth="yes"/>
      <point x="-94" y="-239"/>
      <point x="-161" y="-208"/>
      <point x="-196" y="-182" type="curve"/>
    </contour>
    <contour>
      <point x="317" y="862" type="line"/>
      <point x="211" y="776" type="line"/>
      <point x="118" y="848" type="line"/>
      <point x="339" y="988" type="line"/>
      <point x="512" y="848" type="line"/>
      <point x="393" y="776" type="line"/>
    </contour>
  </outline>
</glyph>
<glyph name="uni0137" format="1">
  <advance width="577"/>
  <unicode hex="0137"/>
  <outline>
    <contour>
      <point x="196" y="780" type="line"/>
      <point x="341" y="780" type="line"/>
      <point x="203" y="0" type="line"/>
      <point x="58" y="0" type="line"/>
    </contour>
    <contour>
      <point x="451" y="460" type="line"/>
      <point x="632" y="460" type="line"/>
      <point x="402" y="270" type="line"/>
      <point x="571" y="0" type="line"/>
      <point x="393" y="0" type="line"/>
      <point x="222" y="270" type="line"/>
    </contour>
    <contour>
      <point x="246" y="-60" type="line"/>
      <point x="394" y="-92" type="line"/>
      <point x="224" y="-342" type="line"/>
      <point x="113" y="-319" type="line"/>
    </contour>
  </outline>
</glyph>
<glyph name="uni013C" format="1">
  <advance width="270"/>
  <unicode hex="013C"/>
  <outline>
    <contour>
      <point x="198" y="780" type="line"/>
      <point x="350" y="780" type="line"/>
      <point x="212" y="0" type="line"/>
      <point x="60" y="0" type="line"/>
    </contour>
    <contour>
      <point x="93" y="-60" type="line"/>
      <point x="240" y="-92" type="line"/>
      <point x="70" y="-342" type="line"/>
      <point x="-40" y="-319" type="line"/>
    </contour>
  </outline>
</glyph>
<glyph name="Nacute" format="1">
  <advance width="793"/>
  <unicode hex="0143"/>
  <outline>
    <contour>
      <point x="170" y="524" type="line"/>
      <point x="204" y="735" type="line"/>
      <point x="746" y="176" type="line"/>
      <point x="714" y="-35" type="line"/>
    </contour>
    <contour>
      <point x="680" y="700" type="line"/>
      <point x="843" y="700" type="line"/>
      <point x="714" y="-35" type="line"/>
      <point x="583" y="150" type="line"/>
    </contour>
    <contour>
      <point x="204" y="735" type="line"/>
      <point x="334" y="550" type="line"/>
      <point x="237" y="0" type="line"/>
      <point x="74" y="0" type="line"/>
    </contour>
    <contour>
      <point x="697" y="915" type="line"/>
      <point x="491" y="765" type="line"/>
      <point x="412" y="808" type="line"/>
      <point x="591" y="968" type="line"/>
    </contour>
  </outline>
</glyph>
<glyph name="scircumflex" format="1">
  <advance width="456"/>
  <unicode hex="015D"/>
  <outline>
    <contour>
      <point x="114" y="174" type="line"/>
      <point x="171" y="114"/>
      <point x="220" y="98"/>
      <point x="252" y="98" type="curve" smooth="yes"/>
      <point x="279" y="98"/>
      <point x="299" y="105"/>
      <point x="303" y="128" type="curve" smooth="yes"/>
      <point x="309" y="162"/>
      <point x="243" y="173"/>
      <point x="193" y="197" type="curve" smooth="yes"/>
      <point x="138" y="225"/>
      <point x="87" y="256"/>
      <point x="101" y="336" type="curve" smooth="yes"/>
      <point x="117" y="424"/>
      <point x="209" y="470"/>
      <point x="308" y="470" type="curve" smooth="yes"/>
      <point x="388" y="470"/>
      <point x="451" y="440"/>
      <point x="493" y="402" type="curve"/>
      <point x="422" y="304" type="line"/>
      <point x="392" y="340"/>
      <point x="335" y="360"/>
      <point x="298" y="360" type="curve" smooth="yes"/>
      <point x="266" y="360"/>
      <point x="250" y="352"/>
      <point x="246" y="332" type="curve" smooth="yes"/>
      <point x="241" y="305"/>
      <point x="299" y="290"/>
      <point x="353" y="268" type="curve" smooth="yes"/>
      <point x="414" y="243"/>
      <point x="469" y="210"/>
      <point x="455" y="130" type="curve" smooth="yes"/>
      <point x="436" y="24"/>
      <point x="363" y="-20"/>
      <point x="251" y="-20" type="curve" smooth="yes"/>
      <point x="153" y="-20"/>
      <point x="79" y="19"/>
      <point x="31" y="75" type="curve"/>
    </contour>
    <contour>
      <point x="347" y="616" type="line"/>
      <point x="239" y="530" type="line"/>
      <point x="146" y="602" type="line"/>
      <point x="369" y="742" type="line"/>
      <point x="541" y="602" type="line"/>
      <point x="421" y="530" type="line"/>
    </contour>
  </outline>
</glyph>
<glyph name="scedilla" format="1">
  <advance width="456"/>
  <unicode hex="015F"/>
  <outline>
    <contour>
      <point x="114" y="174" type="line"/>
      <point x="171" y="114"/>
      <point x="220" y="98"/>
      <point x="252" y="98" type="curve" smooth="yes"/>
      <point x="279" y="98"/>
      <point x="299" y="105"/>
      <point x="303" y="128" type="curve" smooth="yes"/>
      <point x="309" y="162"/>
      <point x="243" y="173"/>
      <point x="193" y="197" type="curve" smooth="yes"/>
      <point x="138" y="225"/>
      <point x="87" y="256"/>
      <point x="101" y="336" type="curve" smooth="yes"/>
      <point x="117" y="424"/>
      <point x="209" y="470"/>
      <point x="308" y="470" type="curve" smooth="yes"/>
      <point x="388" y="470"/>
      <point x="451" y="440"/>
      <point x="493" y="402" type="curve"/>
      <point x="422" y="304" type="line"/>
      <point x="392" y="340"/>
      <point x="335" y="360"/>
      <point x="298" y="360" type="curve" smooth="yes"/>
      <point x="266" y="360"/>
      <point x="250" y="352"/>
      <point x="246" y="332" type="curve" smooth="yes"/>
      <point x="241" y="305"/>
      <point x="299" y="290"/>
      <point x="353" y="268" type="curve" smooth="yes"/>
      <point x="414" y="243"/>
      <point x="469" y="210"/>
      <point x="455" y="130" type="curve" smooth="yes"/>
      <point x="436" y="24"/>
      <point x="363" y="-20"/>
      <point x="251" y="-20" type="curve" smooth="yes"/>
      <point x="153" y="-20"/>
      <point x="79" y="19"/>
      <point x="31" y="75" type="curve"/>
    </contour>
    <contour>
      <point x="226" y="70" type="line"/>
      <point x="338" y="66" type="line"/>
      <point x="206" y="-80" type="line"/>
      <point x="106" y="-124" type="line"/>
    </contour>
    <contour>
      <point x="341" y="-150" type="curve"/>
      <point x="245" y="-140" type="line"/>
      <point x="250" y="-114"/>
      <point x="221" y="-108"/>
      <point x="190" y="-108" type="curve" smooth="yes"/>
      <point x="180" y="-108"/>
      <point x="145" y="-109"/>
      <point x="106" y="-124" type="curve"/>
      <point x="178" y="-80" type="line"/>
      <point x="209" y="-55"/>
      <point x="234" y="-52"/>
      <point x="266" y="-52" type="curve" smooth="yes"/>
      <point x="306" y="-52"/>
      <point x="353" y="-84"/>
    </contour>
    <contour>
      <point x="341" y="-150" type="line"/>
      <point x="328" y="-222"/>
      <point x="254" y="-258"/>
      <point x="191" y="-258" type="curve" smooth="yes"/>
      <point x="135" y="-258"/>
      <point x="95" y="-250"/>
      <point x="53" y="-220" type="curve"/>
      <point x="111" y="-150" type="line"/>
      <point x="134" y="-168"/>
      <point x="165" y="-176"/>
      <point x="185" y="-176" type="curve" smooth="yes"/>
      <point x="219" y="-176"/>
      <point x="241" y="-164"/>
      <point x="245" y="-140" type="curve"/>
    </contour>
  </outline>
</glyph>
<glyph name="Ydieresis" format="1">
  <advance width="660"/>
  <unicode hex="0178"/>
  <outline>
    <contour>
      <point x="307" y="360" type="line"/>
      <point x="479" y="360" type="line"/>
      <point x="416" y="0" type="line"/>
      <point x="244" y="0" type="line"/>
    </contour>
    <contour>
      <point x="589" y="700" type="line"/>
      <point x="785" y="700" type="line"/>
      <point x="354" y="138" type="line"/>
      <point x="121" y="700" type="line"/>
      <point x="317" y="700" type="line"/>
      <point x="407" y="437" type="line"/>
    </contour>
    <contour>
      <point x="523" y="868" type="curve" smooth="yes"/>
      <point x="532" y="918"/>
      <point x="578" y="961"/>
      <point x="633" y="961" type="curve" smooth="yes"/>
      <point x="688" y="961"/>
      <point x="721" y="918"/>
      <point x="712" y="868" type="curve" smooth="yes"/>
      <point x="703" y="818"/>
      <point x="656" y="776"/>
      <point x="601" y="776" type="curve" smooth="yes"/>
      <point x="546" y="776"/>
      <point x="514" y="818"/>
    </contour>
    <contour>
      <point x="255" y="868" type="curve" smooth="yes"/>
      <point x="264" y="918"/>
      <point x="310" y="961"/>
      <point x="365" y="961" type="curve" smooth="yes"/>
      <point x="420" y="961"/>
      <point x="452" y="918"/>
      <point x="443" y="868" type="curve" smooth="yes"/>
      <point x="434" y="818"/>
      <point x="388" y="776"/>
      <point x="333" y="776" type="curve" smooth="yes"/>
      <point x="278" y="776"/>
      <point x="246" y="818"/>
    </contour>
  </outline>
</glyph>
<glyph name="zcaron" format="1">
  <advance width="516"/>
  <unicode hex="017E"/>
  <outline>
    <contour>
      <point x="182" y="138" type="line"/>
      <point x="499" y="138" type="line"/>
      <point x="475" y="0" type="line"/>
      <point x="15" y="0" type="line"/>
    </contour>
    <contour>
      <point x="139" y="460" type="line"/>
      <point x="589" y="460" type="line"/>
      <point x="413" y="322" type="line"/>
      <point x="115" y="322" type="line"/>
    </contour>
    <contour>
      <point x="443" y="460" type="line"/>
      <point x="589" y="460" type="line"/>
      <point x="180" y="0" type="line"/>
      <point x="15" y="0" type="line"/>
    </contour>
    <contour>
      <point x="398" y="656" type="line"/>
      <point x="505" y="741" type="line"/>
      <point x="598" y="670" type="line"/>
      <point x="375" y="530" type="line"/>
      <point x="203" y="670" type="line"/>
      <point x="323" y="741" type="line"/>
    </contour>
  </outline>
</glyph>
<glyph name="breve" format="1">
  <advance width="546"/>
  <unicode hex="02D8"/>
  <outline>
    <contour>
      <point x="258" y="850" type="curve"/>
      <point x="358" y="850" type="line"/>
      <point x="352" y="814"/>
      <point x="373" y="790"/>
      <point x="412" y="790" type="curve" smooth="yes"/>
      <point x="451" y="790"/>
      <point x="482" y="814"/>
      <point x="488" y="850" type="curve"/>
      <point x="588" y="850" type="line"/>
      <point x="574" y="768"/>
      <point x="502" y="704"/>
      <point x="397" y="704" type="curve" smooth="yes"/>
      <point x="292" y="704"/>
      <point x="244" y="768"/>
    </contour>
  </outline>
</glyph>
<glyph name="endash" format="1">
  <advance width="783"/>
  <unicode hex="2013"/>
  <outline>
    <contour>
      <point x="100" y="172" type="line"/>
      <point x="123" y="303" type="line"/>
      <point x="761" y="303" type="line"/>
      <point x="738" y="172" type="line"/>
    </contour>
  </outline>
</glyph>
<glyph name="quotedblleft" format="1">
  <advance width="562"/>
  <unicode hex="201C"/>
  <outline>
    <contour>
      <point x="306" y="445" type="line"/>
      <point x="148" y="445" type="line"/>
      <point x="296" y="700" type="line"/>
      <point x="405" y="700" type="line"/>
    </contour>
    <contour>
      <point x="536" y="445" type="line"/>
      <point x="379" y="445" type="line"/>
      <point x="527" y="700" type="line"/>
      <point x="635" y="700" type="line"/>
    </contour>
  </outline>
</glyph>
<glyph name="daggerdbl" format="1">
  <advance width="632"/>
  <unicode hex="2021"/>
  <outline>
    <contour>
      <point x="118" y="158" type="line"/>
      <point x="570" y="158" type="line"/>
      <point x="548" y="32" type="line"/>
      <point x="96" y="32" type="line"/>
    </contour>
    <contour>
      <point x="185" y="540" type="line"/>
      <point x="637" y="540" type="line"/>
      <point x="615" y="415" type="line"/>
      <point x="163" y="415" type="line"/>
    </contour>
    <contour>
      <point x="368" y="700" type="line"/>
      <point x="511" y="700" type="line"/>
      <point x="362" y="-150" type="line"/>
      <point x="219" y="-150" type="line"/>
    </contour>
  </outline>
</glyph>
<glyph name="ellipsis" format="1">
  <advance width="925"/>
  <unicode hex="2026"/>
  <outline>
    <contour>
      <point x="79" y="68" type="curve" smooth="yes"/>
      <point x="88" y="118"/>
      <point x="134" y="160"/>
      <point x="189" y="160" type="curve" smooth="yes"/>
      <point x="244" y="160"/>
      <point x="277" y="118"/>
      <point x="268" y="68" type="curve" smooth="yes"/>
      <point x="259" y="18"/>
      <point x="212" y="-24"/>
      <point x="157" y="-24" type="curve" smooth="yes"/>
      <point x="102" y="-24"/>
      <point x="70" y="18"/>
    </contour>
    <contour>
      <point x="379" y="68" type="curve" smooth="yes"/>
      <point x="388" y="118"/>
      <point x="434" y="160"/>
      <point x="489" y="160" type="curve" smooth="yes"/>
      <point x="544" y="160"/>
      <point x="577" y="118"/>
      <point x="568" y="68" type="curve" smooth="yes"/>
      <point x="559" y="18"/>
      <point x="512" y="-24"/>
      <point x="457" y="-24" type="curve" smooth="yes"/>
      <point x="402" y="-24"/>
      <point x="370" y="18"/>
    </contour>
    <contour>
      <point x="679" y="68" type="curve" smooth="yes"/>
      <point x="688" y="118"/>
      <point x="734" y="160"/>
      <point x="789" y="160" type="curve" smooth="yes"/>
      <point x="844" y="160"/>
      <point x="877" y="118"/>
      <point x="868" y="68" type="curve" smooth="yes"/>
      <point x="859" y="18"/>
      <point x="812" y="-24"/>
      <point x="757" y="-24" type="curve" smooth="yes"/>
      <point x="702" y="-24"/>
      <point x="670" y="18"/>
    </contour>
  </outline>
</glyph>
<glyph name="guilsinglright" format="1">
  <advance width="350"/>
  <unicode hex="203A"/>
  <outline>
    <contour>
      <point x="269" y="275" type="line"/>
      <point x="367" y="255" type="line"/>
      <point x="145" y="1" type="line"/>
      <point x="62" y="65" type="line"/>
    </contour>
    <contour>
      <point x="367" y="255" type="line"/>
      <point x="261" y="225" type="line"/>
      <point x="129" y="445" type="line"/>
      <point x="235" y="509" type="line"/>
    </contour>
  </outline>
</glyph>
<glyph name="uni2079" format="1">
  <advance width="380"/>
  <unicode hex="2079"/>
  <outline>
    <contour>
      <point x="362" y="554" type="curve" smooth="yes"/>
      <point x="370" y="597"/>
      <point x="344" y="625"/>
      <point x="304" y="625" type="curve" smooth="yes"/>
      <point x="264" y="625"/>
      <point x="230" y="597"/>
      <point x="222" y="554" type="curve" smooth="yes"/>
      <point x="214" y="511"/>
      <point x="239" y="483"/>
      <point x="279" y="483" type="curve" smooth="yes"/>
      <point x="319" y="483"/>
      <point x="354" y="511"/>
    </contour>
    <contour>
      <point x="246" y="284" type="line"/>
      <point x="116" y="284" type="line"/>
      <point x="279" y="436" type="line"/>
      <point x="301" y="444" type="line"/>
      <point x="275" y="422"/>
      <point x="257" y="418"/>
      <point x="227" y="418" type="curve" smooth="yes"/>
      <point x="165" y="418"/>
      <point x="106" y="470"/>
      <point x="121" y="554" type="curve" smooth="yes"/>
      <point x="139" y="657"/>
      <point x="226" y="712"/>
      <point x="320" y="712" type="curve" smooth="yes"/>
      <point x="414" y="712"/>
      <point x="482" y="657"/>
      <point x="464" y="554" type="curve" smooth="yes"/>
      <point x="456" y="509"/>
      <point x="426" y="472"/>
      <point x="393" y="438" type="curve" smooth="yes"/>
    </contour>
  </outline>
</glyph>
<glyph name="uni2080" format="1">
  <advance width="390"/>
  <unicode hex="2080"/>
  <outline>
    <contour>
      <point x="155" y="210" type="curve" smooth="yes"/>
      <point x="141" y="131"/>
      <point x="164" y="80"/>
      <point x="210" y="80" type="curve" smooth="yes"/>
      <point x="256" y="80"/>
      <point x="295" y="131"/>
      <point x="309" y="210" type="curve" smooth="yes"/>
      <point x="323" y="289"/>
      <point x="302" y="340"/>
      <point x="256" y="340" type="curve" smooth="yes"/>
      <point x="210" y="340"/>
      <point x="169" y="289"/>
    </contour>
    <contour>
      <point x="57" y="210" type="curve" smooth="yes"/>
      <point x="81" y="346"/>
      <point x="168" y="428"/>
      <point x="271" y="428" type="curve" smooth="yes"/>
      <point x="378" y="428"/>
      <point x="431" y="346"/>
      <point x="407" y="210" type="curve" smooth="yes"/>
      <point x="383" y="74"/>
      <point x="302" y="-8"/>
      <point x="195" y="-8" type="curve" smooth="yes"/>
      <point x="92" y="-8"/>
      <point x="33" y="74"/>
    </contour>
  </outline>
</glyph>
<glyph name="uni2084" format="1">
  <advance width="431"/>
  <unicode hex="2084"/>
  <outline>
    <contour>
      <point x="27" y="74" type="line"/>
      <point x="124" y="148" type="line"/>
      <point x="310" y="148" type="line" smooth="yes"/>
      <point x="322" y="161" type="line" smooth="yes"/>
      <point x="428" y="161" type="line"/>
      <point x="413" y="74" type="line"/>
    </contour>
    <contour>
      <point x="135" y="104" type="line"/>
      <point x="27" y="74" type="line"/>
      <point x="332" y="420" type="line"/>
      <point x="408" y="420" type="line"/>
      <point x="334" y="0" type="line"/>
      <point x="228" y="0" type="line"/>
      <point x="245" y="96" type="line" smooth="yes"/>
      <point x="258" y="102" type="line" smooth="yes"/>
      <point x="288" y="274" type="line"/>
    </contour>
  </outline>
</glyph>
<glyph name="uni2086" format="1">
  <advance width="394"/>
  <unicode hex="2086"/>
  <outline>
    <contour>
      <point x="152" y="146" type="curve" smooth="yes"/>
      <point x="144" y="103"/>
      <point x="170" y="75"/>
      <point x="210" y="75" type="curve" smooth="yes"/>
      <point x="250" y="75"/>
      <point x="285" y="103"/>
      <point x="293" y="146" type="curve" smooth="yes"/>
      <point x="301" y="189"/>
      <point x="275" y="217"/>
      <point x="235" y="217" type="curve" smooth="yes"/>
      <point x="195" y="217"/>
      <point x="160" y="189"/>
    </contour>
    <contour>
      <point x="269" y="416" type="line"/>
      <point x="397" y="416" type="line"/>
      <point x="235" y="264" type="line"/>
      <point x="213" y="256" type="line"/>
      <point x="239" y="278"/>
      <point x="258" y="282"/>
      <point x="288" y="282" type="curve" smooth="yes"/>
      <point x="350" y="282"/>
      <point x="409" y="230"/>
      <point x="394" y="146" type="curve" smooth="yes"/>
      <point x="376" y="43"/>
      <point x="289" y="-12"/>
      <point x="195" y="-12" type="curve" smooth="yes"/>
      <point x="101" y="-12"/>
      <point x="34" y="43"/>
      <point x="52" y="146" type="curve" smooth="yes"/>
      <point x="60" y="191"/>
      <point x="87" y="228"/>
      <point x="120" y="262" type="curve" smooth="yes"/>
    </contour>
  </outline>
</glyph>
<glyph name="uni2089" format="1">
  <advance width="398"/>
  <unicode hex="2089"/>
  <outline>
    <contour>
      <point x="314" y="274" type="curve" smooth="yes"/>
      <point x="322" y="317"/>
      <point x="297" y="345"/>
      <point x="257" y="345" type="curve" smooth="yes"/>
      <point x="217" y="345"/>
      <point x="181" y="317"/>
      <point x="173" y="274" type="curve" smooth="yes"/>
      <point x="165" y="231"/>
      <point x="192" y="203"/>
      <point x="232" y="203" type="curve" smooth="yes"/>
      <point x="272" y="203"/>
      <point x="306" y="231"/>
    </contour>
    <contour>
      <point x="199" y="4" type="line"/>
      <point x="69" y="4" type="line"/>
      <point x="232" y="156" type="line"/>
      <point x="254" y="164" type="line"/>
      <point x="228" y="142"/>
      <point x="208" y="138"/>
      <point x="178" y="138" type="curve" smooth="yes"/>
      <point x="116" y="138"/>
      <point x="58" y="190"/>
      <point x="73" y="274" type="curve" smooth="yes"/>
      <point x="91" y="377"/>
      <point x="178" y="432"/>
      <point x="272" y="432" type="curve" smooth="yes"/>
      <point x="366" y="432"/>
      <point x="434" y="377"/>
      <point x="416" y="274" type="curve" smooth="yes"/>
      <point x="408" y="229"/>
      <point x="379" y="192"/>
      <point x="346" y="158" type="curve" smooth="yes"/>
    </contour>
  </outline>
</glyph>
<glyph name="trademark" format="1">
  <advance width="746"/>
  <unicode hex="2122"/>
  <outline>
    <contour>
      <point x="140" y="624" type="line"/>
      <point x="153" y="700" type="line"/>
      <point x="430" y="700" type="line"/>
      <point x="417" y="624" type="line"/>
      <point x="320" y="624" type="line"/>
      <point x="272" y="350" type="line"/>
      <point x="188" y="350" type="line"/>
      <point x="236" y="624" type="line"/>
    </contour>
    <contour>
      <point x="707" y="593" type="line"/>
      <point x="790" y="717" type="line"/>
      <point x="782" y="350" type="line"/>
      <point x="693" y="350" type="line"/>
    </contour>
    <contour>
      <point x="491" y="717" type="line"/>
      <point x="532" y="593" type="line"/>
      <point x="460" y="350" type="line"/>
      <point x="370" y="350" type="line"/>
    </contour>
    <contour>
      <point x="790" y="717" type="line"/>
      <point x="770" y="602" type="line"/>
      <point x="581" y="382" type="line"/>
      <point x="471" y="602" type="line"/>
      <point x="491" y="717" type="line"/>
      <point x="603" y="504" type="line"/>
    </contour>
  </outline>
</glyph>
<glyph name="uni2158" format="1">
  <advance width="1016"/>
  <unicode hex="2158"/>
  <outline>
    <contour>
      <point x="857" y="700" type="line"/>
      <point x="978" y="700" type="line"/>
      <point x="335" y="0" type="line"/>
      <point x="214" y="0" type="line"/>
    </contour>
    <contour>
      <point x="84" y="354" type="line"/>
      <point x="180" y="428" type="line"/>
      <point x="366" y="428" type="line" smooth="yes"/>
      <point x="379" y="441" type="line" smooth="yes"/>
      <point x="486" y="441" type="line"/>
      <point x="470" y="354" type="line"/>
    </contour>
    <contour>
      <point x="192" y="384" type="line"/>
      <point x="84" y="354" type="line"/>
      <point x="389" y="700" type="line"/>
      <point x="465" y="700" type="line"/>
      <point x="391" y="280" type="line"/>
      <point x="285" y="280" type="line"/>
      <point x="302" y="376" type="line" smooth="yes"/>
      <point x="315" y="382" type="line" smooth="yes"/>
      <point x="346" y="554" type="line"/>
    </contour>
    <contour>
      <point x="1009" y="132" type="curve" smooth="yes"/>
      <point x="992" y="34"/>
      <point x="896" y="-10"/>
      <point x="815" y="-10" type="curve" smooth="yes"/>
      <point x="738" y="-10"/>
      <point x="692" y="15"/>
      <point x="658" y="44" type="curve"/>
      <point x="711" y="128" type="line"/>
      <point x="740" y="100"/>
      <point x="777" y="82"/>
      <point x="808" y="82" type="curve" smooth="yes"/>
      <point x="858" y="82"/>
      <point x="894" y="102"/>
      <point x="901" y="143" type="curve" smooth="yes"/>
      <point x="908" y="184"/>
      <point x="871" y="202"/>
      <point x="830" y="202" type="curve" smooth="yes"/>
      <point x="798" y="202"/>
      <point x="755" y="195"/>
      <point x="708" y="174" type="curve"/>
      <point x="788" y="226" type="line"/>
      <point x="826" y="260"/>
      <point x="864" y="269"/>
      <point x="906" y="269" type="curve" smooth="yes"/>
      <point x="972" y="269"/>
      <point x="1024" y="218"/>
    </contour>
    <contour>
      <point x="868" y="330" type="line"/>
      <point x="815" y="225" type="line"/>
      <point x="708" y="174" type="line"/>
      <point x="809" y="418" type="line"/>
      <point x="1052" y="418" type="line"/>
      <point x="1036" y="330" type="line"/>
    </contour>
  </outline>
</glyph>
<glyph name="uni215A" format="1">
  <advance width="931"/>
  <unicode hex="215A"/>
  <outline>
    <contour>
      <point x="819" y="700" type="line"/>
      <point x="941" y="700" type="line"/>
      <point x="298" y="0" type="line"/>
      <point x="176" y="0" type="line"/>
    </contour>
    <contour>
      <point x="440" y="412" type="curve" smooth="yes"/>
      <point x="423" y="314"/>
      <point x="327" y="270"/>
      <point x="246" y="270" type="curve" smooth="yes"/>
      <point x="169" y="270"/>
      <point x="121" y="295"/>
      <point x="87" y="324" type="curve"/>
      <point x="142" y="409" type="line"/>
      <point x="171" y="381"/>
      <point x="209" y="363"/>
      <point x="240" y="363" type="curve" smooth="yes"/>
      <point x="290" y="363"/>
      <point x="324" y="383"/>
      <point x="331" y="424" type="curve" smooth="yes"/>
      <point x="338" y="465"/>
      <point x="302" y="482"/>
      <point x="261" y="482" type="curve" smooth="yes"/>
      <point x="229" y="482"/>
      <point x="185" y="476"/>
      <point x="138" y="455" type="curve"/>
      <point x="217" y="506" type="line"/>
      <point x="255" y="540"/>
      <point x="295" y="550"/>
      <point x="337" y="550" type="curve" smooth="yes"/>
      <point x="403" y="550"/>
      <point x="455" y="498"/>
    </contour>
    <contour>
      <point x="298" y="610" type="line"/>
      <point x="245" y="506" type="line"/>
      <point x="138" y="455" type="line"/>
      <point x="239" y="698" type="line"/>
      <point x="481" y="698" type="line"/>
      <point x="466" y="610" type="line"/>
    </contour>
    <contour>
      <point x="688" y="146" type="curve" smooth="yes"/>
      <point x="680" y="103"/>
      <point x="705" y="75"/>
      <point x="745" y="75" type="curve" smooth="yes"/>
      <point x="785" y="75"/>
      <point x="820" y="103"/>
      <point x="828" y="146" type="curve" smooth="yes"/>
      <point x="836" y="189"/>
      <point x="810" y="217"/>
      <point x="770" y="217" type="curve" smooth="yes"/>
      <point x="730" y="217"/>
      <point x="696" y="189"/>
    </contour>
    <contour>
      <point x="804" y="416" type="line"/>
      <point x="933" y="416" type="line"/>
      <point x="771" y="264" type="line"/>
      <point x="749" y="256" type="line"/>
      <point x="775" y="278"/>
      <point x="793" y="282"/>
      <point x="823" y="282" type="curve" smooth="yes"/>
      <point x="885" y="282"/>
      <point x="944" y="230"/>
      <point x="929" y="146" type="curve" smooth="yes"/>
      <point x="911" y="43"/>
      <point x="824" y="-12"/>
      <point x="730" y="-12" type="curve" smooth="yes"/>
      <point x="636" y="-12"/>
      <point x="569" y="43"/>
      <point x="587" y="146" type="curve" smooth="yes"/>
      <point x="595" y="191"/>
      <point x="623" y="228"/>
      <point x="656" y="262" type="curve" smooth="yes"/>
    </contour>
  </outline>
</glyph>
<glyph name="oneeighth" format="1">
  <advance width="891"/>
  <unicode hex="215B"/>
  <outline>
    <contour>
      <point x="741" y="700" type="line"/>
      <point x="863" y="700" type="line"/>
      <point x="220" y="0" type="line"/>
      <point x="98" y="0" type="line"/>
    </contour>
    <contour>
      <point x="125" y="572" type="line"/>
      <point x="141" y="661" type="line"/>
      <point x="350" y="702" type="line"/>
      <point x="274" y="274" type="line"/>
      <point x="176" y="274" type="line"/>
      <point x="233" y="598" type="line"/>
    </contour>
    <contour>
      <point x="617" y="319" type="curve" smooth="yes"/>
      <point x="629" y="389"/>
      <point x="703" y="430"/>
      <point x="780" y="430" type="curve" smooth="yes"/>
      <point x="857" y="430"/>
      <point x="914" y="389"/>
      <point x="902" y="319" type="curve" smooth="yes"/>
      <point x="889" y="243"/>
      <point x="809" y="206"/>
      <point x="740" y="206" type="curve" smooth="yes"/>
      <point x="671" y="206"/>
      <point x="604" y="243"/>
    </contour>
    <contour>
      <point x="712" y="310" type="curve" smooth="yes"/>
      <point x="707" y="281"/>
      <point x="724" y="261"/>
      <point x="750" y="261" type="curve" smooth="yes"/>
      <point x="776" y="261"/>
      <point x="800" y="281"/>
      <point x="805" y="310" type="curve" smooth="yes"/>
      <point x="810" y="339"/>
      <point x="795" y="356"/>
      <point x="767" y="356" type="curve" smooth="yes"/>
      <point x="739" y="356"/>
      <point x="717" y="339"/>
    </contour>
    <contour>
      <point x="566" y="114" type="curve" smooth="yes"/>
      <point x="582" y="202"/>
      <point x="677" y="238"/>
      <point x="746" y="238" type="curve" smooth="yes"/>
      <point x="815" y="238"/>
      <point x="896" y="202"/>
      <point x="880" y="114" type="curve" smooth="yes"/>
      <point x="867" y="38"/>
      <point x="784" y="-10"/>
      <point x="702" y="-10" type="curve" smooth="yes"/>
      <point x="620" y="-10"/>
      <point x="553" y="38"/>
    </contour>
    <contour>
      <point x="671" y="130" type="curve" smooth="yes"/>
      <point x="664" y="93"/>
      <point x="686" y="72"/>
      <point x="717" y="72" type="curve" smooth="yes"/>
      <point x="748" y="72"/>
      <point x="775" y="93"/>
      <point x="782" y="130" type="curve" smooth="yes"/>
      <point x="787" y="161"/>
      <point x="767" y="184"/>
      <point x="736" y="184" type="curve" smooth="yes"/>
      <point x="705" y="184"/>
      <point x="676" y="161"/>
    </contour>
  </outline>
</glyph>
<glyph name="uni2219" format="1">
  <advance width="322"/>
  <unicode hex="2219"/>
  <outline>
    <contour>
      <point x="145" y="443" type="curve" smooth="yes"/>
      <point x="154" y="493"/>
      <point x="201" y="536"/>
      <point x="256" y="536" type="curve" smooth="yes"/>
      <point x="311" y="536"/>
      <point x="343" y="493"/>
      <point x="334" y="443" type="curve" smooth="yes"/>
      <point x="325" y="393"/>
      <point x="278" y="350"/>
      <point x="223" y="350" type="curve" smooth="yes"/>
      <point x="168" y="350"/>
      <point x="136" y="393"/>
    </contour>
  </outline>
</glyph>
<glyph name="uniFF19" format="1">
  <advance width="630"/>
  <unicode hex="FF19"/>
  <outline>
    <contour>
      <point x="512" y="454" type="curve" smooth="yes"/>
      <point x="525" y="525"/>
      <point x="482" y="572"/>
      <point x="415" y="572" type="curve" smooth="yes"/>
      <point x="348" y="572"/>
      <point x="289" y="525"/>
      <point x="276" y="454" type="curve" smooth="yes"/>
      <point x="263" y="383"/>
      <point x="306" y="335"/>
      <point x="373" y="335" type="curve" smooth="yes"/>
      <point x="440" y="335"/>
      <point x="499" y="383"/>
    </contour>
    <contour>
      <point x="317" y="3" type="line"/>
      <point x="103" y="3" type="line"/>
      <point x="373" y="256" type="line"/>
      <point x="411" y="271" type="line"/>
      <point x="367" y="235"/>
      <point x="336" y="226"/>
      <point x="286" y="226" type="curve" smooth="yes"/>
      <point x="182" y="226"/>
      <point x="85" y="312"/>
      <point x="110" y="454" type="curve" smooth="yes"/>
      <point x="140" y="626"/>
      <point x="283" y="716"/>
      <point x="440" y="716" type="curve" smooth="yes"/>
      <point x="597" y="716"/>
      <point x="709" y="626"/>
      <point x="679" y="454" type="curve" smooth="yes"/>
      <point x="666" y="378"/>
      <point x="620" y="316"/>
      <point x="564" y="260" type="curve" smooth="yes"/>
    </contour>
  </outline>
</glyph>
<glyph name="adieresis.alt" format="1">
  <advance width="616"/>
  <outline>
    <contour>
      <point x="491" y="460" type="line"/>
      <point x="641" y="460" type="line"/>
      <point x="560" y="0" type="line"/>
      <point x="410" y="0" type="line"/>
    </contour>
    <contour>
      <point x="73" y="230" type="curve" smooth="yes"/>
      <point x="102" y="392"/>
      <point x="222" y="476"/>
      <point x="334" y="476" type="curve" smooth="yes"/>
      <point x="456" y="476"/>
      <point x="511" y="379"/>
      <point x="485" y="230" type="curve" smooth="yes"/>
      <point x="459" y="81"/>
      <point x="369" y="-16"/>
      <point x="247" y="-16" type="curve" smooth="yes"/>
      <point x="135" y="-16"/>
      <point x="44" y="68"/>
    </contour>
    <contour>
      <point x="232" y="230" type="curve" smooth="yes"/>
      <point x="219" y="158"/>
      <point x="262" y="118"/>
      <point x="322" y="118" type="curve" smooth="yes"/>
      <point x="373" y="118"/>
      <point x="436" y="155"/>
      <point x="449" y="230" type="curve" smooth="yes"/>
      <point x="462" y="305"/>
      <point x="412" y="342"/>
      <point x="361" y="342" type="curve" smooth="yes"/>
      <point x="301" y="342"/>
      <point x="245" y="302"/>
    </contour>
    <contour>
      <point x="459" y="628" type="curve" smooth="yes"/>
      <point x="468" y="678"/>
      <point x="514" y="721"/>
      <point x="569" y="721" type="curve" smooth="yes"/>
      <point x="624" y="721"/>
      <point x="657" y="678"/>
      <point x="648" y="628" type="curve" smooth="yes"/>
      <point x="639" y="578"/>
      <point x="592" y="536"/>
      <point x="537" y="536" type="curve" smooth="yes"/>
      <point x="482" y="536"/>
      <point x="450" y="578"/>
    </contour>
    <contour>
      <point x="215" y="628" type="curve" smooth="yes"/>
      <point x="224" y="678"/>
      <point x="270" y="721"/>
      <point x="325" y="721" type="curve" smooth="yes"/>
      <point x="380" y="721"/>
      <point x="413" y="678"/>
      <point x="404" y="628" type="curve" smooth="yes"/>
      <point x="395" y="578"/>
      <point x="348" y="536"/>
      <point x="293" y="536" type="curve" smooth="yes"/>
      <point x="238" y="536"/>
      <point x="206" y="578"/>
    </contour>
  </outline>
</glyph>
<glyph name="aogonek.alt" format="1">
  <advance width="616"/>
  <outline>
    <contour>
      <point x="491" y="460" type="line"/>
      <point x="641" y="460" type="line"/>
      <point x="560" y="0" type="line"/>
      <point x="410" y="0" type="line"/>
    </contour>
    <contour>
      <point x="73" y="230" type="curve" smooth="yes"/>
      <point x="102" y="392"/>
      <point x="222" y="476"/>
      <point x="334" y="476" type="curve" smooth="yes"/>
      <point x="456" y="476"/>
      <point x="511" y="379"/>
      <point x="485" y="230" type="curve" smooth="yes"/>
      <point x="459" y="81"/>
      <point x="369" y="-16"/>
      <point x="247" y="-16" type="curve" smooth="yes"/>
      <point x="135" y="-16"/>
      <point x="44" y="68"/>
    </contour>
    <contour>
      <point x="232" y="230" type="curve" smooth="yes"/>
      <point x="219" y="158"/>
      <point x="262" y="118"/>
      <point x="322" y="118" type="curve" smooth="yes"/>
      <point x="373" y="118"/>
      <point x="436" y="155"/>
      <point x="449" y="230" type="curve" smooth="yes"/>
      <point x="462" y="305"/>
      <point x="412" y="342"/>
      <point x="361" y="342" type="curve" smooth="yes"/>
      <point x="301" y="342"/>
      <point x="245" y="302"/>
    </contour>
    <contour>
      <point x="516" y="-111" type="curve"/>
      <point x="537" y="-180" type="line"/>
      <point x="518" y="-200"/>
      <point x="486" y="-220"/>
      <point x="430" y="-220" type="curve" smooth="yes"/>
      <point x="365" y="-220"/>
      <point x="319" y="-186"/>
      <point x="331" y="-120" type="curve"/>
      <point x="433" y="-94" type="line"/>
      <point x="429" y="-119"/>
      <point x="439" y="-131"/>
      <point x="463" y="-131" type="curve" smooth="yes"/>
      <point x="483" y="-131"/>
      <point x="500" y="-124"/>
    </contour>
    <contour>
      <point x="433" y="-94" type="curve"/>
      <point x="331" y="-120" type="line"/>
      <point x="343" y="-54"/>
      <point x="418" y="-11"/>
      <point x="494" y="25" type="curve"/>
      <point x="531" y="0" type="line"/>
      <point x="474" y="-28"/>
      <point x="438" y="-64"/>
    </contour>
  </outline>
</glyph>
<glyph name="atilde.alt" format="1">
  <advance width="616"/>
  <outline>
    <contour>
      <point x="491" y="460" type="line"/>
      <point x="641" y="460" type="line"/>
      <point x="560" y="0" type="line"/>
      <point x="410" y="0" type="line"/>
    </contour>
    <contour>
      <point x="73" y="230" type="curve" smooth="yes"/>
      <point x="102" y="392"/>
      <point x="222" y="476"/>
      <point x="334" y="476" type="curve" smooth="yes"/>
      <point x="456" y="476"/>
      <point x="511" y="379"/>
      <point x="485" y="230" type="curve" smooth="yes"/>
      <point x="459" y="81"/>
      <point x="369" y="-16"/>
      <point x="247" y="-16" type="curve" smooth="yes"/>
      <point x="135" y="-16"/>
      <point x="44" y="68"/>
    </contour>
    <contour>
      <point x="232" y="230" type="curve" smooth="yes"/>
      <point x="219" y="158"/>
      <point x="262" y="118"/>
      <point x="322" y="118" type="curve" smooth="yes"/>
      <point x="373" y="118"/>
      <point x="436" y="155"/>
      <point x="449" y="230" type="curve" smooth="yes"/>
      <point x="462" y="305"/>
      <point x="412" y="342"/>
      <point x="361" y="342" type="curve" smooth="yes"/>
      <point x="301" y="342"/>
      <point x="245" y="302"/>
    </contour>
    <contour>
      <point x="229" y="598" type="line"/>
      <point x="248" y="647"/>
      <point x="302" y="692"/>
      <point x="366" y="692" type="curve" smooth="yes"/>
      <point x="432" y="692"/>
      <point x="437" y="641"/>
      <point x="493" y="641" type="curve" smooth="yes"/>
      <point x="519" y="641"/>
      <point x="542" y="662"/>
      <point x="568" y="694" type="curve"/>
      <point x="626" y="620" type="line"/>
      <point x="603" y="583"/>
      <point x="538" y="534"/>
      <point x="476" y="534" type="curve" smooth="yes"/>
      <point x="421" y="534"/>
      <point x="397" y="588"/>
      <point x="347" y="588" type="curve" smooth="yes"/>
      <point x="309" y="588"/>
      <point x="294" y="551"/>
      <point x="291" y="536" type="curve"/>
    </contour>
  </outline>
</glyph>
